<svg xmlns="http://www.w3.org/2000/svg" xmlns:xlink="http://www.w3.org/1999/xlink" width="811.043" height="593.79" viewBox="0 0 811.043 593.79">
	<defs>
		<clipPath id="clip-path">
			<rect id="Rectangle_20" data-name="Rectangle 20" width="811.043" height="593.79" fill="none" />
		</clipPath>
	</defs>
	<g id="Group_10" data-name="Group 10" transform="translate(0 0.002)">
		<g id="Group_9" data-name="Group 9" transform="translate(0 -0.002)" clip-path="url(#clip-path)">
			<path id="Path_4" data-name="Path 4" d="M111.174,682.9C54.2,620.869-23.667,556.814,6.867,460.053,26.95,396.41,76.192,378.671,117.123,339.426c20.2-19.367,7.5-47.559,7.12-75.538-.856-71.653,79.108-127.254,152.625-126.094,79.63,1.257,114.1,81.314,180.9,85.607,26.23.4,49.717-14.992,72.924-27.219,68.764-36.232,177.876-13.127,183.39,74.5C715.5,318,661.647,394.127,715.607,419.014c43.005,19.835,86.45,27.142,94.2,98.086,10.144,92.858-43.484,143.821-113.365,167.719Z" transform="translate(0 -94.546)" fill="#e3eaff" />
			<path id="Path_5" data-name="Path 5" d="M434.212,749.713h79.282a17.769,17.769,0,0,1,17.769,17.769v36.959a17.769,17.769,0,0,1-17.769,17.769h-.588l6.363,21.318a1.01,1.01,0,0,1-1.581,1.092l-29.375-22.41h-54.1a17.769,17.769,0,0,1-17.769-17.769V767.482a17.769,17.769,0,0,1,17.769-17.769" transform="translate(-285.778 -514.479)" fill="#fff" />
			<path id="Path_6" data-name="Path 6" d="M539.924,810.151H463.806a8.8,8.8,0,1,1,0-17.591h76.117a8.8,8.8,0,1,1,0,17.591" transform="translate(-312.245 -543.883)" fill="#e3eaff" />
			<path id="Path_7" data-name="Path 7" d="M539.924,895.758H463.806a8.8,8.8,0,1,1,0-17.59h76.117a8.8,8.8,0,1,1,0,17.59" transform="translate(-312.245 -602.63)" fill="#e3eaff" />
			<path id="Path_8" data-name="Path 8" d="M1787.949,431.76h-86.461a19.378,19.378,0,0,0-19.379,19.379v40.305a19.378,19.378,0,0,0,19.379,19.378h.641l-6.939,23.248a1.1,1.1,0,0,0,1.724,1.191l32.035-24.439h59a19.379,19.379,0,0,0,19.379-19.378V451.139a19.379,19.379,0,0,0-19.379-19.379" transform="translate(-1154.324 -296.289)" fill="#fff" />
			<path id="Path_9" data-name="Path 9" d="M1809.611,501.86h-87.055a7.818,7.818,0,0,1-7.818-7.818v-1.955a7.818,7.818,0,0,1,7.818-7.818h87.055a7.818,7.818,0,0,1,7.818,7.818v1.955a7.818,7.818,0,0,1-7.818,7.818" transform="translate(-1176.715 -332.322)" fill="#e3eaff" />
			<path id="Path_10" data-name="Path 10" d="M1773.278,586.622h-40.765a8.8,8.8,0,0,1-8.8-8.8h0a8.8,8.8,0,0,1,8.8-8.8h40.765a8.8,8.8,0,0,1,8.8,8.8h0a8.8,8.8,0,0,1-8.8,8.8" transform="translate(-1182.877 -390.49)" fill="#e3eaff" />
			<path id="Path_11" data-name="Path 11" d="M174.77,1375.426a19.007,19.007,0,0,1,11.8-3.715c9.905,0,15.149,5.39,15.149,12.964,0,4.37-2.112,8.813-6.409,13.255-5.463,5.754-9.4,8.594-11.872,8.594a4.1,4.1,0,0,1-4.151-4.151c0-2.039,1.894-4.078,5.171-7.064a3.18,3.18,0,0,1,.583-.51c3.715-3.423,4.88-5.317,4.88-7.647,0-2.913-1.966-4.516-4.807-4.516a15.61,15.61,0,0,0-4.661.874,14.974,14.974,0,0,1-3.933.874,4.542,4.542,0,0,1-4.37-4.662c0-1.529.874-2.986,2.622-4.3M184.748,1424a7.234,7.234,0,0,1-7.429-7.429,7.122,7.122,0,0,1,7.429-6.846,6.981,6.981,0,0,1,6.846,6.846c0,4.006-2.84,7.429-6.846,7.429" transform="translate(-118.134 -941.317)" fill="#fff" />
			<path id="Path_12" data-name="Path 12" d="M2073.081,857.337a12.5,12.5,0,0,1,7.759-2.443c6.514,0,9.962,3.544,9.962,8.526,0,2.874-1.388,5.8-4.214,8.717-3.593,3.784-6.179,5.652-7.807,5.652a2.7,2.7,0,0,1-2.73-2.73c0-1.341,1.245-2.682,3.4-4.646a2.107,2.107,0,0,1,.383-.335c2.443-2.251,3.209-3.5,3.209-5.029a2.845,2.845,0,0,0-3.161-2.97,10.268,10.268,0,0,0-3.066.575,9.821,9.821,0,0,1-2.586.575,2.987,2.987,0,0,1-2.874-3.065,3.621,3.621,0,0,1,1.724-2.826m6.562,31.947a4.757,4.757,0,0,1-4.885-4.886,4.683,4.683,0,0,1,4.885-4.5,4.591,4.591,0,0,1,4.5,4.5,4.65,4.65,0,0,1-4.5,4.886" transform="translate(-1421.44 -586.658)" fill="#fff" />
			<path id="Path_13" data-name="Path 13" d="M2328.2,1242.9h-90.936a2.911,2.911,0,0,1-2.911-2.911v-78.278a2.911,2.911,0,0,1,5.822,0v75.366H2328.2a2.911,2.911,0,0,1,0,5.823" transform="translate(-1533.292 -795.21)" fill="#fff" />
			<path id="Path_14" data-name="Path 14" d="M2259.2,1267.908a2.911,2.911,0,0,1-2.093-4.934l29.39-30.4a2.912,2.912,0,0,1,3.677-.419l13.9,9.015,14.656-17.029a2.911,2.911,0,1,1,4.413,3.8l-16.314,18.956a2.912,2.912,0,0,1-3.791.543l-14.02-9.094-27.724,28.679a2.9,2.9,0,0,1-2.094.888" transform="translate(-1548.347 -839.353)" fill="#fff" />
			<path id="Path_15" data-name="Path 15" d="M2440.966,1219.939l-4.147-8.4-8.926-2.848,19.872-9.87Z" transform="translate(-1666.108 -822.671)" fill="#fff" />
			<path id="Path_16" data-name="Path 16" d="M547.819,445.086a17.615,17.615,0,1,1,17.615-17.615,17.635,17.635,0,0,1-17.615,17.615m0-30.379a12.763,12.763,0,1,0,12.764,12.764,12.778,12.778,0,0,0-12.764-12.764" transform="translate(-363.845 -281.257)" fill="#fff" />
			<path id="Path_17" data-name="Path 17" d="M2270.925,912.545a12.9,12.9,0,1,1,12.9-12.9,12.917,12.917,0,0,1-12.9,12.9m0-22.252a9.349,9.349,0,1,0,9.349,9.349,9.36,9.36,0,0,0-9.349-9.349" transform="translate(-1549.536 -608.512)" fill="#e3eaff" />
			<path id="Path_18" data-name="Path 18" d="M114.972,1143.734a11.585,11.585,0,1,1,11.585-11.585,11.6,11.6,0,0,1-11.585,11.585m0-19.98a8.394,8.394,0,1,0,8.394,8.395,8.4,8.4,0,0,0-8.394-8.395" transform="translate(-70.948 -768.971)" fill="#fff" />
			<path id="Path_19" data-name="Path 19" d="M2092.03,344.594a6.3,6.3,0,1,1-6.3-6.3,6.3,6.3,0,0,1,6.3,6.3" transform="translate(-1426.975 -232.147)" fill="#fff" />
			<path id="Path_20" data-name="Path 20" d="M304.639,703.2A12.393,12.393,0,1,1,292.246,690.8,12.393,12.393,0,0,1,304.639,703.2" transform="translate(-192.045 -474.055)" fill="#e3eaff" />
			<path id="Path_21" data-name="Path 21" d="M2198.88,260.12a9.317,9.317,0,1,1-9.317-9.317,9.317,9.317,0,0,1,9.317,9.317" transform="translate(-1496.164 -172.109)" fill="#e3eaff" />
			<path id="Path_22" data-name="Path 22" d="M2350.157,976.111a7.952,7.952,0,1,1-7.952-7.953,7.952,7.952,0,0,1,7.952,7.953" transform="translate(-1601.848 -664.384)" fill="#e3eaff" />
			<path id="Path_23" data-name="Path 23" d="M2122.175,412.355a9.915,9.915,0,1,1-9.915-9.915,9.915,9.915,0,0,1,9.915,9.915" transform="translate(-1442.705 -276.168)" fill="#fff" />
			<path id="Path_24" data-name="Path 24" d="M668.218,354.656A10.057,10.057,0,1,1,658.161,344.6a10.057,10.057,0,0,1,10.057,10.057" transform="translate(-444.752 -236.476)" fill="#fff" />
			<path id="Path_25" data-name="Path 25" d="M918.362,1877.088H323.068a3.516,3.516,0,0,1,0-7.033H918.362a3.516,3.516,0,1,1,0,7.033" transform="translate(-219.288 -1283.298)" fill="#201d40" />
			<path id="Path_26" data-name="Path 26" d="M934.685,911.013h.011l9.137.034,2.07,21.582-10.666,5.632-11.375-5.568,1.838-21.645Z" transform="translate(-633.987 -625.169)" fill="#f37a50" />
			<path id="Path_27" data-name="Path 27" d="M872.993,804.815c5.624,14.053,19.13,21.864,30.167,17.447s15.426-19.389,9.8-33.442-19.13-21.864-30.167-17.447-15.425,19.389-9.8,33.442" transform="translate(-597.398 -528.496)" fill="#f37a50" />
			<path id="Path_28" data-name="Path 28" d="M989.628,837.274a2.067,2.067,0,1,0,.517-2.878,2.067,2.067,0,0,0-.517,2.878" transform="translate(-678.864 -572.338)" />
			<path id="Path_29" data-name="Path 29" d="M940.209,856.832a2.238,2.238,0,1,0,.559-3.115,2.238,2.238,0,0,0-.559,3.115" transform="translate(-644.93 -585.575)" />
			<path id="Path_30" data-name="Path 30" d="M980.432,854.893c2.8,2.2,6.29,4.862,6.29,4.862a5.426,5.426,0,0,1-3.9,4.831c1.425-1.293,2.675-3.012,1.193-5s-3.581-4.695-3.581-4.695" transform="translate(-672.808 -586.658)" fill="#de623c" />
			<path id="Path_31" data-name="Path 31" d="M925.841,847.842a1.033,1.033,0,0,1-1-1.271c.361-1.513,1.875-4.378,5.021-4.393a1.032,1.032,0,1,1,.01,2.063c-2.33.011-3.018,2.781-3.024,2.809a1.032,1.032,0,0,1-1,.792" transform="translate(-634.637 -577.931)" fill="#201d40" />
			<path id="Path_32" data-name="Path 32" d="M981.659,823.342a.86.86,0,0,1-.741-1.295,4.24,4.24,0,0,1,2.649-1.893,4.4,4.4,0,0,1,3.583,1.135.86.86,0,0,1-1.074,1.343,2.8,2.8,0,0,0-2.2-.787,2.486,2.486,0,0,0-1.479,1.072.859.859,0,0,1-.742.425" transform="translate(-673.061 -562.779)" fill="#201d40" />
			<path id="Path_33" data-name="Path 33" d="M851.366,781.227c-4.757-13.542,6.83-21.328,6.83-21.328s-3.109-.278-3.48-4.644a11.483,11.483,0,0,0,7.228-.156c15.444-5.591,26.078-5.517,26.078,1.092,0,2.352,10.2.741,9.344,16.564.06-1.117-3.584-7.622-7.028-8.271s-.335,3.953-7.532,4.942c-7.262,1-12.6-.766-17.038,3.329-3.471,3.572-4.332,21.748-3.8,22.842-1.21-2.508-8.507-8.418-10.6-14.369" transform="translate(-583.452 -515.403)" fill="#201d40" />
			<path id="Path_34" data-name="Path 34" d="M926.805,854.893s.657,8.246-.532,10.8c-1.238-3.307-3.894.2-6.389.528-6.03.8-16.908-1.212-17.986,7.832-7.368,2.332-14.271-13.441-14.271-13.441-.424,17.621,12.471,27.628,31.028,24.7,12.226-1.931,13.36-18.954,8.151-30.41" transform="translate(-609.115 -586.658)" fill="#201d40" />
			<path id="Path_35" data-name="Path 35" d="M963.071,898.065a15.667,15.667,0,0,1-3.722-1.459.688.688,0,0,1,.649-1.213c2.855,1.526,5.414,1.96,7.606,1.291a7.175,7.175,0,0,0,3.96-3.133.688.688,0,0,1,1.218.639,8.452,8.452,0,0,1-4.752,3.8,9.283,9.283,0,0,1-4.959.074" transform="translate(-658.09 -612.934)" fill="#de623c" />
			<path id="Path_36" data-name="Path 36" d="M867.915,871.331c3.1,1.743,4.463,5.215,3.036,7.754s-5.1,3.186-8.2,1.442-4.463-5.215-3.036-7.754,5.1-3.186,8.2-1.442" transform="translate(-589.578 -597.266)" fill="#f37a50" />
			<path id="Path_37" data-name="Path 37" d="M875.012,885.222a.767.767,0,0,0,.237-.267,3.518,3.518,0,0,0-.374-4.305,3.75,3.75,0,0,0-4.273-.783.778.778,0,1,0,.7,1.389,2.219,2.219,0,0,1,2.455.48,1.993,1.993,0,0,1,.12,2.481.778.778,0,0,0,1.132,1.006" transform="translate(-597.146 -603.549)" fill="#de623c" />
			<path id="Path_38" data-name="Path 38" d="M971.611,1816.749c1.945-5.281,6.1-5.868,6.1-5.868,8.079,11.147,27.92,4.307,27.263,19.384-30.172-.194-42.711,0-42.711,0a110.578,110.578,0,0,1,1.332-14.9l1.572.288Z" transform="translate(-660.34 -1242.691)" />
			<path id="Path_39" data-name="Path 39" d="M827.738,1817.681c1.945-5.281,6.1-5.868,6.1-5.868,8.079,11.147,27.92,4.307,27.264,19.384-30.172-.194-42.711,0-42.711,0a110.529,110.529,0,0,1,1.332-14.9l1.572.289Z" transform="translate(-561.609 -1243.331)" />
			<path id="Path_40" data-name="Path 40" d="M970.88,1268.492s4.9,71.446,2.909,87.33-9.037,36.248-8.239,88.787c-9.836,2.462-24.085,0-24.085,0s-2.113-59.407,8.285-85.942c-4.228-25.774-17.8-84.808-17.8-84.808Z" transform="translate(-639.541 -870.484)" fill="#201d40" />
			<path id="Path_41" data-name="Path 41" d="M871.347,1274.717s-9.891,80.21-14.733,95.424-14.285,28.077-23.051,79.834c-10.108.506-19.52,0-19.52,0s1.364-65.652,17.107-80.582c.533-26.137-2.546-94.161-2.546-94.161Z" transform="translate(-558.625 -874.756)" fill="#2c2858" />
			<path id="Path_42" data-name="Path 42" d="M846.391,975.882s17.18-6.014,22.909-3.256c17.8,8.571,21.883,0,21.883,0,5.688.491,22.86,3.256,22.86,3.256,0,19.176,1.28,38.418.931,52.93-.246,12.638,2.163,47.027,2.163,47.027s-18.941,4.966-36.859,5.095c-17.918-.116-36.155-4.893-36.155-4.893s.957-34.832,1.753-47.778c-.258-14.511.515-33.256.515-52.381" transform="translate(-579.267 -666.954)" fill="#e62552" />
			<path id="Path_43" data-name="Path 43" d="M1086.827,1013.086c-7.091-16.919-28.133-27.68-30.539-28.5l-4.881,21.72a127.156,127.156,0,0,1,17.446,12.445c-1.244,6.048-1.036,11.979-4.537,19.628,0,0,3.04-4.2,6.792-1.713,3.646,2.414,10.353-2.513,10.353-2.513s10.782-8.144,5.365-21.067" transform="translate(-721.514 -675.658)" fill="#c4204a" />
			<path id="Path_44" data-name="Path 44" d="M1048.068,1070.178a1.9,1.9,0,0,0,.368.075h.4a1.92,1.92,0,0,0,1.632-1.339l18.9-60.948a1.627,1.627,0,0,0,.078-.609c0-.048,0-.1,0-.145s-.017-.083-.024-.125a1.915,1.915,0,0,0-1.315-1.522,1.949,1.949,0,0,0-.36-.077,1.9,1.9,0,0,0-.41,0h-47.589l-19.07,64.766H1048.1Z" transform="translate(-686.707 -689.993)" fill="#95a6db" />
			<path id="Path_45" data-name="Path 45" d="M1016.22,1005.562a1.921,1.921,0,0,0-2.4,1.264l-18.785,60.8-.043.142a1.919,1.919,0,0,0,1.256,2.4l0,0a1.92,1.92,0,0,0,2.4-1.264l18.834-60.936a1.92,1.92,0,0,0-1.265-2.4" transform="translate(-682.738 -689.993)" fill="#768fdb" />
			<path id="Path_46" data-name="Path 46" d="M1175.354,1101.285a1.961,1.961,0,0,1,.57-.247c-.021-.03-.043-.058-.063-.088-1.184-1.786-1.1-3.922.177-4.77a2.032,2.032,0,0,1,.684-.286,2.867,2.867,0,0,1,.88-3.191,2.148,2.148,0,0,1,1.228-.343,2.867,2.867,0,0,1,.938-3.342,3.362,3.362,0,0,1,3.659,5.521,2.4,2.4,0,0,1-1.061.382c.853,1.662.681,3.482-.478,4.249a2.062,2.062,0,0,1-.683.287,2.867,2.867,0,0,1-.881,3.191,2.134,2.134,0,0,1-1.134.343,2.451,2.451,0,0,1-.746,2.957,2.839,2.839,0,0,1-3.091-4.662" transform="translate(-805.918 -747.048)" fill="#f37a50" />
			<path id="Path_47" data-name="Path 47" d="M990.966,1097.433l4.339-2.513a8.2,8.2,0,0,1,8.167-6.3l-1.947,6.3s3.429,2.662,11.561-1.894c7.95-1.786,4.554,4.009,7.189,4.426,3.888.614-2.834,8.254-10.772,9.423-10.271,1.513-11.49-.59-11.49-.59l-5.812,2.031Z" transform="translate(-680.036 -747.049)" fill="#f37a50" />
			<path id="Path_48" data-name="Path 48" d="M799.914,1032.616c14.5-1.013,39.234-8.175,39.234-8.175,3.958,6.071,2.864,14.135,2.864,14.135-22.518,19.741-56.407,26.123-66.8,21.371-9.493-4.337-2.792-62.125,21.043-75.362,8.171,13.826,3.663,48.03,3.663,48.03" transform="translate(-529.127 -675.658)" fill="#8a284c" />
			<path id="Path_49" data-name="Path 49" d="M1548.154,1812.5c-8.079,10.776-27.92,4.164-27.263,18.74,30.172-.187,42.711,0,42.711,0a103.428,103.428,0,0,0-1.332-14.4Z" transform="translate(-1043.679 -1243.801)" />
			<path id="Path_50" data-name="Path 50" d="M1692.028,1813.4c-8.079,10.777-27.92,4.164-27.264,18.74,30.173-.187,42.712,0,42.712,0a103.484,103.484,0,0,0-1.332-14.4Z" transform="translate(-1142.41 -1244.418)" />
			<path id="Path_51" data-name="Path 51" d="M1555.9,1288.147s-4.9,69.07-2.909,84.426,9.037,35.043,8.239,85.834c9.836,2.381,24.085,0,24.085,0s2.113-57.432-8.285-83.084c4.228-24.917,17.795-81.989,17.795-81.989Z" transform="translate(-1065.392 -883.972)" fill="#201d40" />
			<path id="Path_52" data-name="Path 52" d="M1622.637,1294.163s9.892,77.543,14.733,92.251,14.285,27.144,23.051,77.179c10.108.489,22.152-2,22.152-2s-4-61.468-19.739-75.9c-.533-25.268,2.546-91.031,2.546-91.031Z" transform="translate(-1113.512 -888.101)" fill="#2c2858" />
			<path id="Path_53" data-name="Path 53" d="M1662.584,817.535c-5.362,13.4-18.238,20.845-28.76,16.634s-14.706-18.485-9.345-31.883,18.238-20.845,28.761-16.634,14.706,18.486,9.344,31.883" transform="translate(-1113.174 -538.334)" fill="#f37a50" />
			<path id="Path_54" data-name="Path 54" d="M1636.318,848.481a1.971,1.971,0,1,1-.492-2.743,1.971,1.971,0,0,1,.492,2.743" transform="translate(-1120.437 -580.133)" />
			<path id="Path_55" data-name="Path 55" d="M1682.723,867.126a2.134,2.134,0,1,1-.533-2.97,2.134,2.134,0,0,1,.533,2.97" transform="translate(-1152.079 -592.752)" />
			<path id="Path_56" data-name="Path 56" d="M1640.594,865.279c-2.665,2.1-6,4.635-6,4.635a5.172,5.172,0,0,0,3.72,4.605c-1.359-1.232-2.551-2.872-1.137-4.765s3.415-4.476,3.415-4.476" transform="translate(-1121.719 -593.785)" fill="#de623c" />
			<path id="Path_57" data-name="Path 57" d="M1693.064,858.555a.984.984,0,0,1-.956-.756c-.026-.1-.687-2.668-2.883-2.678a.984.984,0,0,1,.009-1.967c3,.015,4.443,2.746,4.787,4.189a.984.984,0,0,1-.958,1.212" transform="translate(-1158.536 -585.464)" />
			<path id="Path_58" data-name="Path 58" d="M1638.626,835.2a.819.819,0,0,1-.706-.4,2.387,2.387,0,0,0-1.424-1.028,2.68,2.68,0,0,0-2.082.753.82.82,0,1,1-1.024-1.28,4.2,4.2,0,0,1,3.415-1.082,4.042,4.042,0,0,1,2.526,1.8.82.82,0,0,1-.706,1.234" transform="translate(-1120.681 -571.019)" />
			<path id="Path_59" data-name="Path 59" d="M1650.5,798.006c-3.877-12.466,1.026-19.089,1.026-19.089-3.329-.667-4.622.485-4.622.485a7.393,7.393,0,0,1-.41-6.4c-6.88-2.682-10.306,1.773-16.514,3.275-8.5,2.056-19-1.335-19.985-11.713a1.772,1.772,0,0,1,2.764-1.635,7.814,7.814,0,0,0,4.63,1.354,8.344,8.344,0,0,1-1.872-4.788,1.77,1.77,0,0,1,2.925-1.379c1.767,1.471,5.046,2.861,10.892,1.766,3.891-.729,12.8-6.961,18.346-5.744,4.536.995,8.134,4.855,9.684,10.38a14.253,14.253,0,0,1,12.267,13.425c1.1,12.055-12.865,21.3-12.865,21.3Z" transform="translate(-1104.832 -517.407)" />
			<path id="Path_60" data-name="Path 60" d="M1726.8,885.6c-2.953,1.673-4.236,4.988-2.867,7.4s4.872,3.018,7.825,1.345,4.236-4.988,2.867-7.4-4.872-3.018-7.824-1.345" transform="translate(-1182.647 -607.08)" fill="#f37a50" />
			<path id="Path_61" data-name="Path 61" d="M1734.121,898.842a.736.736,0,0,1-.228-.254,3.355,3.355,0,0,1,.341-4.106,3.575,3.575,0,0,1,4.071-.762.742.742,0,0,1-.665,1.326,2.118,2.118,0,0,0-2.338.466,1.9,1.9,0,0,0-.105,2.365.742.742,0,0,1-1.076.964" transform="translate(-1189.493 -613.072)" fill="#de623c" />
			<path id="Path_62" data-name="Path 62" d="M1636.333,906.281a.628.628,0,0,1,.662-.946,44.56,44.56,0,0,0,11.783,1.052.628.628,0,0,1,.485,1.048,7.839,7.839,0,0,1-12.931-1.154" transform="translate(-1122.845 -621.263)" fill="#fff" />
			<path id="Path_63" data-name="Path 63" d="M1472.088,961.982s.5-1.365-42.917-1.014l-11.64,13.759c12.048,9.66,52.4,11.378,52.4,11.378Z" transform="translate(-972.761 -659.411)" fill="#201d40" />
			<path id="Path_64" data-name="Path 64" d="M1641.694,957.962l13.695-1.278,13.249,3.695-14.928,15.362Z" transform="translate(-1126.589 -656.51)" fill="#95a6db" />
			<path id="Path_65" data-name="Path 65" d="M1656.825,943.586c5.581,4.582,6.722,7.749,18.578,1.625l1.778-18.229-19.3-1.522Z" transform="translate(-1136.973 -635.083)" fill="#f37a50" />
			<path id="Path_66" data-name="Path 66" d="M1620.51,970.512h0l-4.059-1.606.543-5.732-11.258,9.041-3.179.506-3.038-1.063-9.469-10.9-.485,5.737-3.581.718L1573.07,969.3l-1.537,71.677-5.095,24.386c17.136,5.7,36.3,7.122,55.137,4.525l-.633-24.481,13.381-70.051Z" transform="translate(-1074.946 -659.306)" fill="#95a6db" />
			<path id="Path_67" data-name="Path 67" d="M1655.973,1021.963l-8.09,54.727,4.48,6.223,5.84-4.486,1.987-56.01Z" transform="translate(-1130.837 -701.307)" fill="#2c2858" />
			<path id="Path_68" data-name="Path 68" d="M1672.131,999.665l2.957-.779,3.012,1.314-1.274,6.489-4.241-.38Z" transform="translate(-1147.477 -685.471)" fill="#2c2858" />
			<path id="Path_69" data-name="Path 69" d="M1568.659,962.219l-2.028,66.108-8.75,42.569s-13.838-1.395-22.34-9.485l10.9-32.047,3.725-66.969Z" transform="translate(-1053.743 -660.309)" fill="#2c2858" />
			<path id="Path_70" data-name="Path 70" d="M1614.652,962.219l-2.017,65.222-10.072-49.984Z" transform="translate(-1099.736 -660.309)" fill="#494c7f" />
			<path id="Path_71" data-name="Path 71" d="M1691.566,975.7,1673.6,1082.871s23.845,2.929,33.65-3.519l-5.321-35.231,6.5-59.813Z" transform="translate(-1148.483 -669.558)" fill="#2c2858" />
			<path id="Path_72" data-name="Path 72" d="M1707.9,975.7l-10.5,62.817L1716.2,991.12Z" transform="translate(-1164.814 -669.558)" fill="#494c7f" />
			<path id="Path_73" data-name="Path 73" d="M1351.966,721.551c.956,3.344,1.242,6.95,5.483,8.753,0,0-.627,11.1-.159,20.2,0,0,10.264-11.574,10.262-11.584-.588-3.67-1.064-10.608-.5-14.547.147-1.023.347-2.041.507-3.066.441-2.488,1.173-5.035-.343-8.038-5.857-11.6-3.885-15.422-4.692-15.988-1.311-.577-4.394,1.757-2.651,7.459,1.687,5.518,1.271,8.226,1.271,8.226s-4.427-.836-6,.713c-.714.7-4.3,3.963-3.181,7.872" transform="translate(-927.62 -478.44)" fill="#f37a50" />
			<path id="Path_74" data-name="Path 74" d="M1360.026,818.345c5.982-1.994,9.131-2.891,13.782-2.891,11,32.773,18.836,45.121,15.568,54.531-2.725,7.844-11.351,7.217-15.568,1.339-5.563-7.753-10.488-37.21-13.782-52.978" transform="translate(-933.299 -559.593)" fill="#201d40" />
			<path id="Path_75" data-name="Path 75" d="M1770.389,1003.143l34.647,54.206,41.151,23.235-12.683,12.628-41.285-18.1-28.334-39.977Z" transform="translate(-1210.441 -688.392)" fill="#201d40" />
			<path id="Path_76" data-name="Path 76" d="M1648.038,972.721s-5.1,5.146-9.783,6.463l-5.542-14.654,2.818-3.773Z" transform="translate(-1120.426 -659.306)" fill="#fff" />
			<path id="Path_77" data-name="Path 77" d="M1681.555,978.006a24.561,24.561,0,0,0,8.478,8.1l8.063-13.391-2.1-4.257Z" transform="translate(-1153.943 -664.591)" fill="#fff" />
			<path id="Path_78" data-name="Path 78" d="M1111.939,1452.808H809.414c-7.11,0-12.874-3.878-12.874-8.663s5.764-8.663,12.874-8.663h302.525c7.11,0,12.874,3.879,12.874,8.663s-5.764,8.663-12.874,8.663" transform="translate(-546.614 -985.079)" fill="#95a6db" />
			<path id="Path_79" data-name="Path 79" d="M1189.994,1598.245h0a4.082,4.082,0,0,1-3.419-6.313l79.877-122.408,6.838,4.462-79.877,122.408a4.081,4.081,0,0,1-3.419,1.851" transform="translate(-813.811 -1008.44)" fill="#95a6db" />
			<path id="Path_80" data-name="Path 80" d="M1258.206,1598.245h0a4.082,4.082,0,0,0,3.419-6.313l-79.877-122.408-6.838,4.462,79.877,122.408a4.083,4.083,0,0,0,3.419,1.851" transform="translate(-806.265 -1008.44)" fill="#95a6db" />
			<path id="Path_81" data-name="Path 81" d="M1831.578,1713.5h0a3.911,3.911,0,0,1-3.91-3.91V1640.3h7.821v69.287a3.911,3.911,0,0,1-3.911,3.91" transform="translate(-1254.212 -1125.634)" fill="#768fdb" />
			<path id="Path_82" data-name="Path 82" d="M1919.034,1713.5h0a3.911,3.911,0,0,1-3.911-3.91V1640.3h7.821v69.287a3.911,3.911,0,0,1-3.911,3.91" transform="translate(-1314.226 -1125.634)" fill="#768fdb" />
			<path id="Path_83" data-name="Path 83" d="M2033.791,1713.5h0a3.911,3.911,0,0,1-3.911-3.91V1640.3h7.821v69.287a3.91,3.91,0,0,1-3.91,3.91" transform="translate(-1392.977 -1125.634)" fill="#768fdb" />
			<path id="Path_84" data-name="Path 84" d="M2121.247,1713.5h0a3.911,3.911,0,0,1-3.911-3.91V1640.3h7.822v69.287a3.911,3.911,0,0,1-3.911,3.91" transform="translate(-1452.992 -1125.634)" fill="#768fdb" />
			<path id="Path_85" data-name="Path 85" d="M1855.949,1292.151V1374.6a1.7,1.7,0,0,1-1.7,1.7h-51.122a9.339,9.339,0,1,0,0,18.678h62.16a9.339,9.339,0,0,0,9.339-9.339v-93.49a9.339,9.339,0,0,0-18.678,0" transform="translate(-1230.962 -880.311)" fill="#95a6db" />
			<rect id="Rectangle_18" data-name="Rectangle 18" width="40.419" height="95.004" transform="translate(634.325 402.501)" fill="#95a6db" />
			<path id="Path_86" data-name="Path 86" d="M1984.768,1292.151V1374.6a1.7,1.7,0,0,1-1.7,1.7h-51.122a9.339,9.339,0,0,0,0,18.678h62.16a9.339,9.339,0,0,0,9.339-9.339v-93.49a9.339,9.339,0,0,0-9.339-9.339h0a9.339,9.339,0,0,0-9.339,9.339" transform="translate(-1319.363 -880.311)" fill="#768fdb" />
			<path id="Path_87" data-name="Path 87" d="M778.434,1713.5h0a3.911,3.911,0,0,0,3.911-3.91V1640.3h-7.821v69.287a3.91,3.91,0,0,0,3.91,3.91" transform="translate(-531.506 -1125.634)" fill="#768fdb" />
			<path id="Path_88" data-name="Path 88" d="M690.978,1713.5h0a3.91,3.91,0,0,0,3.91-3.91V1640.3h-7.821v69.287a3.911,3.911,0,0,0,3.911,3.91" transform="translate(-471.49 -1125.634)" fill="#768fdb" />
			<path id="Path_89" data-name="Path 89" d="M576.221,1713.5h0a3.911,3.911,0,0,0,3.911-3.91V1640.3h-7.821v69.287a3.91,3.91,0,0,0,3.91,3.91" transform="translate(-392.74 -1125.634)" fill="#768fdb" />
			<path id="Path_90" data-name="Path 90" d="M488.766,1713.5h0a3.91,3.91,0,0,0,3.91-3.91V1640.3h-7.821v69.287a3.911,3.911,0,0,0,3.911,3.91" transform="translate(-332.725 -1125.634)" fill="#768fdb" />
			<path id="Path_91" data-name="Path 91" d="M594.369,1292.151V1374.6a1.7,1.7,0,0,0,1.7,1.7H647.19a9.339,9.339,0,0,1,0,18.678H585.03a9.339,9.339,0,0,1-9.339-9.339v-93.49a9.339,9.339,0,0,1,9.339-9.339h0a9.339,9.339,0,0,1,9.339,9.339" transform="translate(-395.06 -880.311)" fill="#95a6db" />
			<rect id="Rectangle_19" data-name="Rectangle 19" width="40.419" height="95.004" transform="translate(149.551 402.501)" fill="#95a6db" />
			<path id="Path_92" data-name="Path 92" d="M465.55,1292.151V1374.6a1.7,1.7,0,0,0,1.7,1.7h51.122a9.339,9.339,0,0,1,0,18.678h-62.16a9.339,9.339,0,0,1-9.339-9.339v-93.49a9.339,9.339,0,0,1,18.678,0" transform="translate(-306.66 -880.311)" fill="#768fdb" />
			<path id="Path_93" data-name="Path 93" d="M1890.579,1061.469c-8.626-3.111-21.949-9.915-13.094-22.346s8.628-7.006,5.441-22.106,7.551-26.979,17.787-23.973,12.848,11.289,25.4,9.193,22.977,9.638,18.254,19.815-6.74,15.076-2.324,20.709,24.315,11.7,16.016,25.2-12.1,12.666-9.22,19.584-3.767,14.793-15.3,13.718-21.98-5.438-26.21-18.319-16.741-21.469-16.741-21.469" transform="translate(-1286.395 -681.14)" fill="#2c2858" />
			<path id="Path_94" data-name="Path 94" d="M1800.5,1808.988l-6.815,2.036-5.133-5.247c.245-.364.01-3.88-.784-7.625l12.732-2.113c.508,3.88,0,9.031,0,12.949" transform="translate(-1226.829 -1232.506)" fill="#f37a50" />
			<path id="Path_95" data-name="Path 95" d="M1745.942,1829.551c-1.621-4.255-5.085-4.728-5.085-4.728-6.733,8.981-23.268,3.47-22.721,15.617,25.145-.156,35.595,0,35.595,0a86.11,86.11,0,0,0-1.11-12l-1.31.233Z" transform="translate(-1179.037 -1252.259)" fill="#e62552" />
			<path id="Path_96" data-name="Path 96" d="M1659.428,1812.1l-7.1.486-4.081-4.347c.319-.3,1.091-5.683,1.141-9.511l11.962.532a110.419,110.419,0,0,1-1.926,12.84" transform="translate(-1131.089 -1234.352)" fill="#f37a50" />
			<path id="Path_97" data-name="Path 97" d="M1602.87,1829.551c-1.621-4.255-5.084-4.728-5.084-4.728-6.733,8.981-23.268,3.47-22.721,15.617,25.145-.156,35.595,0,35.595,0a86.11,86.11,0,0,0-1.11-12l-1.31.233Z" transform="translate(-1080.857 -1252.259)" fill="#e62552" />
			<path id="Path_98" data-name="Path 98" d="M1731.194,1461.98c-19.373,2.608-73.947,22.832-76.989,26.491-6.283,7.558-2.971,48.681-5.955,82.614l15.862.937c7.6-27.635,6.993-39.562,10.429-71.258,0,0,62.349,4.67,84.879-10.537,23.229-15.679-12.56-31.962-28.226-28.247" transform="translate(-1131.089 -1002.895)" fill="#0e6a41" />
			<path id="Path_99" data-name="Path 99" d="M1735.538,1334.756c4.578.781,6.342,4.454,7.445,11.219-17.44,10.275-43.353,11.006-43.353,11.006l-8.259-4.084s20.778-7.483,44.167-18.141" transform="translate(-1160.679 -915.957)" fill="#de623c" />
			<path id="Path_100" data-name="Path 100" d="M1880.079,1227.2c-7.633,11.092-36.875,34.944-41.715,35.7l-5.864-16.412s28.549-30.9,33.747-36.362c8.978-9.478,26.328-1.007,13.832,17.078" transform="translate(-1257.527 -827.736)" fill="#de623c" />
			<path id="Path_101" data-name="Path 101" d="M1881.651,1222.687c6.121-6.6,14.093-21.482,24.467-20.424s11.123,12.067,8,18-13.924,20.535-13.924,20.535Z" transform="translate(-1291.256 -824.999)" fill="#ff4f78" />
			<path id="Path_102" data-name="Path 102" d="M1768.482,1356.4c4.4,1.514,6.907,15.365,5.673,16.425-18.851,7.466-58.073-.609-58.073-.609l-2.082-7.1s29.7-1.818,54.482-8.713" transform="translate(-1176.208 -930.812)" fill="#f37a50" />
			<path id="Path_103" data-name="Path 103" d="M1954.242,1288.035c-4.311-22.24-6.169-30.122-7.959-40.589-4.425-25.868,8.586-44.048-13.721-56.446l-16.259,2.621c-13.146,13.831-21.24,26.385-21.934,35.057-.954,11.187,10.147,17.257,10.147,17.257l-4.466,30.456s-1.051,2.487,17.282,5.95,36.91,5.694,36.91,5.694" transform="translate(-1299.945 -817.306)" fill="#e62552" />
			<path id="Path_104" data-name="Path 104" d="M1936.3,1236.724c-7.633,11.22-40.249,39.735-45.151,39.988l-3.509-17.015s29.63-34.724,34.828-40.248c8.978-9.587,26.328-1.019,13.832,17.276" transform="translate(-1295.367 -834.105)" fill="#f37a50" />
			<path id="Path_105" data-name="Path 105" d="M1943.343,1234.068c5.7-8.287,17.186-23.578,27.559-22.52s11.124,12.067,8,18-13.924,20.535-13.924,20.535Z" transform="translate(-1333.592 -831.372)" fill="#ff4f78" />
			<path id="Path_106" data-name="Path 106" d="M1660.888,1380.14c-6-1.474-19.035-5.854-24.284,7.877,1.317,2.521,6.144-3.7,8.217-4.278,3.291-.915,6.114.814,8.606,3.2,3.572,3.414,9.543.309,9.543.309Z" transform="translate(-1123.097 -945.836)" fill="#f37a50" />
			<path id="Path_107" data-name="Path 107" d="M1575.928,1418.478H1519.6v-7.563h63.894a7.563,7.563,0,0,1-7.563,7.563" transform="translate(-1042.802 -968.22)" fill="#ff4f78" />
			<path id="Path_108" data-name="Path 108" d="M1425.379,1261.242l28.966,47.515,6.7-3.519-32.485-54.211a7.564,7.564,0,0,0-3.176,10.215" transform="translate(-977.549 -858.499)" fill="#ff4f78" />
			<path id="Path_109" data-name="Path 109" d="M1967.146,1068.842c-2.739,11.44-12.243,18.97-21.228,16.818s-14.048-13.169-11.309-24.609,12.243-18.97,21.228-16.818,14.048,13.169,11.309,24.609" transform="translate(-1327.088 -716.337)" fill="#f37a50" />
			<path id="Path_110" data-name="Path 110" d="M1988.579,1142.67l-14.931,9.255s-1.325,6.6-1.986,8.74c-1.365,4.418,3.864,6.349,8.284,3.6a12.932,12.932,0,0,0,5.545-6.43Z" transform="translate(-1352.873 -784.141)" fill="#f37a50" />
			<path id="Path_111" data-name="Path 111" d="M1932.96,1050.515c4.243.365,13.436-.372,16.788-4.347,2.39,8.072,12.549,15.754,20.953,19.357.337-8.282.276-23.516-14.569-29.845-11.663-4.973-23.172,14.835-23.172,14.835" transform="translate(-1326.467 -710.171)" fill="#2c2858" />
			<path id="Path_112" data-name="Path 112" d="M1942.995,1103.132a1.607,1.607,0,1,1-.722-2.155,1.607,1.607,0,0,1,.722,2.155" transform="translate(-1331.263 -755.414)" />
			<path id="Path_113" data-name="Path 113" d="M1982.666,1112.636a1.739,1.739,0,1,1-.781-2.332,1.74,1.74,0,0,1,.781,2.332" transform="translate(-1358.314 -761.804)" />
			<path id="Path_114" data-name="Path 114" d="M1987.153,1105.365a.6.6,0,0,1-.28-.287,4.607,4.607,0,0,0-3.25-2.25.6.6,0,0,1,.171-1.2,5.753,5.753,0,0,1,4.177,2.939.6.6,0,0,1-.818.8" transform="translate(-1360.878 -755.973)" fill="#2c2858" />
			<path id="Path_115" data-name="Path 115" d="M1937.754,1096.005a.6.6,0,0,1-.161-.117.6.6,0,0,1,0-.855,4.247,4.247,0,0,1,4.215-1.034.6.6,0,0,1-.392,1.144,3.033,3.033,0,0,0-2.973.75.6.6,0,0,1-.695.111" transform="translate(-1329.526 -750.615)" fill="#2c2858" />
			<path id="Path_116" data-name="Path 116" d="M1946.85,1119.156a16.032,16.032,0,0,1-2.5,2.372.637.637,0,0,0-.209.848c.68,1.205,2.665,2.2,3.882,2.715a.17.17,0,0,0,.178-.284,8.244,8.244,0,0,1-1.978-2.307.757.757,0,0,1,0-.688c.252-.5.754-1.513,1.093-2.353a.286.286,0,0,0-.472-.3" transform="translate(-1334.085 -767.944)" fill="#de623c" />
			<path id="Path_117" data-name="Path 117" d="M2021.409,1121.012c-2.183,1.7-2.826,4.524-1.436,6.31s4.287,1.858,6.47.16,2.826-4.524,1.437-6.31-4.287-1.858-6.47-.16" transform="translate(-1385.674 -768.435)" fill="#f37a50" />
			<path id="Path_118" data-name="Path 118" d="M2028.141,1131.76a.6.6,0,0,1-.213-.178,2.735,2.735,0,0,1-.21-3.352,2.914,2.914,0,0,1,3.193-1.1.605.605,0,0,1-.379,1.149,1.725,1.725,0,0,0-1.831.652,1.549,1.549,0,0,0,.2,1.92.605.605,0,0,1-.754.9" transform="translate(-1391.164 -773.391)" fill="#de623c" />
			<path id="Path_119" data-name="Path 119" d="M1809.631,1471.483c-19.372,2.608-74.029,20.322-77.071,23.981-6.283,7.558,7.7,39.924,12.179,81.59h18.7c-.2-29.688,2.176-57-6.959-66.679,0,0,52.388-3.5,78.5-3.5,13.312,0,20.68-44.986-25.353-35.4" transform="translate(-1187.85 -1008.863)" fill="#3f964f" />
			<path id="Path_120" data-name="Path 120" d="M1950.127,1148.307a.492.492,0,0,1,.452-.784,34.954,34.954,0,0,0,9.276.01.492.492,0,0,1,.451.785,6.147,6.147,0,0,1-10.18-.01" transform="translate(-1338.179 -787.468)" fill="#fff" />
			<path id="Path_121" data-name="Path 121" d="M759.128,1363.365c-3.7,2.463-2.675,15.878-1.278,16.56,19.236,2.351,51.727-13.586,51.727-13.586l1.272-7.129s-27.137,4.545-51.721,4.156" transform="translate(-519.19 -932.738)" fill="#f37a50" />
			<path id="Path_122" data-name="Path 122" d="M621.788,1254.336c6.877,11,36.977,39.432,41.648,39.855l3.978-16.122s-27.019-34.255-31.78-39.723c-8.221-9.487-25.108-1.943-13.847,15.99" transform="translate(-424.118 -846.97)" fill="#f37a50" />
			<path id="Path_123" data-name="Path 123" d="M536.832,1048.531c.827-11.259-2.428-21.207-11.406-26.272-9.1-5.134-20.5-.1-20.5-.1s-9.649-3.432-18.393,6.2-2.13,18.109-5.707,25.134c-2.119,4.16-12.89,5.018-10.108,18.568.8,3.908,5.5,6.538,9.484,6.8,6.995.46,13.508-2.244,16.343.46,9.343,8.91,30.048,5.687,32.946-2.463.9-2.527,19.524,2.364,17.665-14.849-.941-8.722-11.064-3.417-10.325-13.478" transform="translate(-322.711 -699.927)" fill="#2c2858" />
			<path id="Path_124" data-name="Path 124" d="M583.564,1221.071l-14.787-2.73-5.545,7.377,11.784,24.161,17.333-14.712Z" transform="translate(-386.51 -836.069)" fill="#f37a50" />
			<path id="Path_125" data-name="Path 125" d="M563.811,1279.286c-.253-4.6,7.176-23.475,3.266-32.978-2.848-7.644-7.606-20.475-13.433-22.616-2.75-1.01-5.575-1.714-9-2.661,0,0,1.933,9.632-2.094,9.955-7.752.621-12.693-12.685-12.693-12.685-4.179-.4-23.35,5.9-23.341,7.474.045,12.33,10.063,30.319,13.339,43.65,1.289,14.4-3.734,31.626-3.752,33.265,0,0,30.84,8.67,49.121-1.395.382-1.4-1.062-15.662-1.411-22.01" transform="translate(-347.589 -836.029)" fill="#3f964f" />
			<path id="Path_126" data-name="Path 126" d="M532.9,1440.151s-6.808,17.177-8.469,27.989,7.71,17.75,7.71,17.75H610.06s8.342-13.528,5.939-22.87-7.929-10.827-7.929-10.827Z" transform="translate(-359.749 -988.283)" fill="#3f964f" />
			<path id="Path_127" data-name="Path 127" d="M689.268,1476.75c-9.948-1.4-38.82,9.811-51.131,34.175h34.441Z" transform="translate(-437.913 -1013.318)" fill="#de623c" />
			<path id="Path_128" data-name="Path 128" d="M766.327,1485.08a27.614,27.614,0,0,0,3.48-4.952,8.592,8.592,0,0,1,13.853-1.623c14.361,15.832,44.974,51.926,51.8,56.417,1.928,1.269,13.18,7.748,23.876,6.467,0,0,5.28,2.01,1.762,6.2-1.81,2.158-28.993,4.387-28.993,4.387L829.987,1544c-15.823-11.711-35.521-10.869-52.223-32.279-9.2-11.79-11.437-26.639-11.437-26.639" transform="translate(-525.881 -1012.68)" fill="#de623c" />
			<path id="Path_129" data-name="Path 129" d="M973.924,1691.412l10.938,7.1,1.5-1.792-8.872-8.274c5.04-3.977,16.714-.659,16.714-.659,3.823-2.469,11.277-10.48,12.046-14.772-2.449-3.051-10.6,3.225-10.6,3.225.3,1.359-2.277,6.067-4.326,6.872-8.906,1.922-17.783-.609-25.025-4.286,0,0-6.053,9.171,7.624,12.586" transform="translate(-662.194 -1147.509)" fill="#e62552" />
			<path id="Path_130" data-name="Path 130" d="M752.853,1512.082a5.149,5.149,0,0,0-3.766,4.248c-.779,5.526-4.8,16.717.641,28.437,13.363,28.771,21.253,47.728,22.654,55.153-3.49,6.537,10.428,24.394,10.635,25.563l10.018-3.135s-5.749-8.551-7.818-11.9c-4.929-7.973-5.735-17.756-6.536-25.341-3.42-32.376,2.46-52.818-20.966-71.81a5.47,5.47,0,0,0-4.862-1.216" transform="translate(-512.567 -1037.532)" fill="#f37a50" />
			<path id="Path_131" data-name="Path 131" d="M808.6,1806.08l.987,13,2.337.109,1.2-12.072c6.218,1.6,10.658,12.891,10.658,12.891,4.282,1.543,15.172,2.613,19.05.621.942-3.8-8.993-6.475-8.993-6.475-.9,1.063-6.206,1.869-8.088.728-6.929-5.917-10.694-14.51-12.161-22.5,0,0-10.568.748-4.99,13.694" transform="translate(-553.775 -1229.999)" fill="#e62552" />
			<path id="Path_132" data-name="Path 132" d="M589.863,1184.62l-12.007-1.8.956,11.145s2.3,5.049,4.964,5.391l9.823-2.661Z" transform="translate(-396.546 -811.694)" fill="#f37a50" />
			<path id="Path_133" data-name="Path 133" d="M540.609,1075.38c3.1,12.945,13.855,21.466,24.022,19.032s15.9-14.9,12.8-27.848-13.855-21.466-24.022-19.031-15.9,14.9-12.8,27.848" transform="translate(-370.408 -718.569)" fill="#f37a50" />
			<path id="Path_134" data-name="Path 134" d="M644.192,1114.184a1.818,1.818,0,1,0,.817-2.438,1.818,1.818,0,0,0-.817,2.438" transform="translate(-441.937 -762.788)" />
			<path id="Path_135" data-name="Path 135" d="M598.644,1124.937a1.968,1.968,0,1,0,.884-2.639,1.968,1.968,0,0,0-.884,2.639" transform="translate(-410.669 -770.018)" />
			<path id="Path_136" data-name="Path 136" d="M590,1116.708a.677.677,0,0,0,.315-.325,5.212,5.212,0,0,1,3.678-2.546.685.685,0,0,0-.193-1.355,6.512,6.512,0,0,0-4.727,3.326.684.684,0,0,0,.927.9" transform="translate(-404.197 -763.42)" fill="#2c2858" />
			<path id="Path_137" data-name="Path 137" d="M646.192,1106.117a.685.685,0,0,0,.176-1.1,4.805,4.805,0,0,0-4.77-1.17.685.685,0,0,0,.443,1.3,3.432,3.432,0,0,1,3.364.849.685.685,0,0,0,.786.126" transform="translate(-439.971 -757.357)" fill="#2c2858" />
			<path id="Path_138" data-name="Path 138" d="M637.386,1132.315a18.211,18.211,0,0,0,2.825,2.684.721.721,0,0,1,.237.96c-.769,1.365-3.016,2.488-4.393,3.073a.192.192,0,0,1-.2-.322,9.343,9.343,0,0,0,2.238-2.61.861.861,0,0,0,0-.779c-.285-.563-.853-1.712-1.237-2.662a.324.324,0,0,1,.533-.344" transform="translate(-436.299 -776.966)" fill="#de623c" />
			<path id="Path_139" data-name="Path 139" d="M540.213,1134.415c2.471,1.922,3.2,5.119,1.625,7.141s-4.851,2.1-7.321.18-3.2-5.119-1.625-7.141,4.851-2.1,7.321-.18" transform="translate(-365.12 -777.522)" fill="#f37a50" />
			<path id="Path_140" data-name="Path 140" d="M545.68,1146.578a.674.674,0,0,0,.241-.2,3.1,3.1,0,0,0,.239-3.793,3.3,3.3,0,0,0-3.613-1.24.685.685,0,1,0,.43,1.3,1.954,1.954,0,0,1,2.072.739,1.753,1.753,0,0,1-.221,2.173.684.684,0,0,0,.853,1.024" transform="translate(-371.992 -783.131)" fill="#de623c" />
			<path id="Path_141" data-name="Path 141" d="M604.822,1163.521a.546.546,0,0,1,.5-.87,38.653,38.653,0,0,0,10.276,0,.545.545,0,0,1,.5.87,6.809,6.809,0,0,1-11.277,0" transform="translate(-414.975 -797.85)" fill="#fff" />
			<path id="Path_142" data-name="Path 142" d="M537.67,1068.848c12.136-1.625,29.116-13.99,30.509-20.335-2.348-7.622-14.854-11.453-21.916-7.922s-13.733,18.665-8.593,28.257" transform="translate(-367.72 -713.182)" fill="#2c2858" />
			<path id="Path_143" data-name="Path 143" d="M898.839,1287.4h0a3.077,3.077,0,0,1-1.97-3.88l18.732-57.384a3.077,3.077,0,0,1,3.88-1.97h0a3.077,3.077,0,0,1,1.97,3.88l-18.732,57.383a3.077,3.077,0,0,1-3.879,1.97" transform="translate(-615.359 -839.959)" fill="#fff" />
			<path id="Path_144" data-name="Path 144" d="M929.417,1334.913l3.817-11.692s3.308,6.726,0,13.11-6.457,6.669-6.457,6.669Z" transform="translate(-635.988 -908.041)" fill="#f37a50" />
			<path id="Path_145" data-name="Path 145" d="M913.569,1333.184c-.965-2.269-3.237-7.948-.965-7.922s2.643,2.784,2.643,2.784Z" transform="translate(-625.591 -909.442)" fill="#f37a50" />
			<path id="Path_146" data-name="Path 146" d="M319.748,1218.555c5.152-5.2,1.772-10.526,1.772-10.526,2.827-.606,17.741,21.985,24.171,36.342,11.217-11.305,30.982-26.573,36.327-27.463,0,0,7.21-1.938,9.8,6.779,2.312,7.781-6.706,13.294-6.706,13.294s-38.579,27.237-44.285,24.816c-8.879-3.767-16.914-36.185-21.08-43.242" transform="translate(-219.423 -828.984)" fill="#f37a50" />
			<path id="Path_147" data-name="Path 147" d="M242.092,1202.77c3.148.192,7.041-1.364,8.254,1.458l6.213-3.029.376-3.747c-5.339-8.555-18.353-10.982-19.641-11.1-3.347-.294-4.9-.639-5.163-.191s-1.081,3.428,3.776,4.011c6.1.732,2.049,5.606-10.318.966-3.1-1.161-8.924.346-6.816,2.609,2.322,2.493,8.995,8.145,23.319,9.018" transform="translate(-149.822 -813.841)" fill="#f37a50" />
			<path id="Path_148" data-name="Path 148" d="M1195.074,684.365a24.72,24.72,0,0,1-1.4,8.19c-4.561,13.1-19.789,22.716-37.877,22.716s-33.312-9.619-37.873-22.716a24.7,24.7,0,0,1-1.4-8.19Z" transform="translate(-766.203 -469.635)" fill="#3f964f" />
			<path id="Path_149" data-name="Path 149" d="M1195.074,684.365a24.72,24.72,0,0,1-1.4,8.19h-75.75a24.7,24.7,0,0,1-1.4-8.19Z" transform="translate(-766.203 -469.635)" fill="#0e6a41" />
			<path id="Path_150" data-name="Path 150" d="M1144.061,82.241a82.243,82.243,0,1,0-147.245,50.385,102.948,102.948,0,0,1,21.823,63.1v.4H1105v-.4a103.246,103.246,0,0,1,21.88-63.177,81.867,81.867,0,0,0,17.183-50.31" transform="translate(-672.22 0.002)" fill="#ffe91d" />
			<path id="Path_151" data-name="Path 151" d="M1170.8,318.8a2.1,2.1,0,0,1-1.985-2.794c.1-.279,9.794-28.221,16.841-56.673,12.491-50.432,6.063-58.629,2.72-59.813-9.83-3.48-17.657,1.668-22.491,6.6a41.909,41.909,0,0,0-4.066,4.868,79.716,79.716,0,0,1,5.579,11.882c4.355,11.635,5.513,22.5,3.1,29.071-1.864,5.067-5.826,7.636-11.157,7.235-5.029-.379-8.709-3.29-10.64-8.421-2.215-5.884-1.929-14.535.785-23.736a63.376,63.376,0,0,1,7.383-16.216,40.764,40.764,0,0,0-9.9-11.193c-5.412-3.945-10.495-4.117-15.108-.511-9.524,7.445-9.889,29.837-1.054,64.755a462.425,462.425,0,0,0,16.906,52.057,2.1,2.1,0,0,1-3.9,1.573,467.25,467.25,0,0,1-17.073-52.561c-9.417-37.2-8.565-60.463,2.531-69.138,6.1-4.765,13.26-4.614,20.174.426a43.556,43.556,0,0,1,9.994,10.943,44.53,44.53,0,0,1,3.447-3.979c8.045-8.206,17.6-10.912,26.9-7.62,5.79,2.05,8.165,9.843,7.261,23.824-.667,10.312-3.126,24.1-7.309,40.988-7.094,28.638-16.848,56.741-16.946,57.021a2.1,2.1,0,0,1-1.985,1.412M1159.259,214.92a59.706,59.706,0,0,0-5.744,13.286c-2.425,8.219-2.754,16.094-.883,21.065,1.351,3.588,3.648,5.455,7.021,5.709,3.48.262,5.671-1.166,6.9-4.494,2.786-7.574-.6-23.044-7.289-35.566" transform="translate(-768.759 -131.974)" fill="#fff" />
			<path id="Path_152" data-name="Path 152" d="M1165.188,623.731H1093.4a15.5,15.5,0,0,1-15.5-15.5v-.65a15.5,15.5,0,0,1,15.5-15.5h71.79a15.5,15.5,0,0,1,15.5,15.5v.65a15.5,15.5,0,0,1-15.5,15.5" transform="translate(-739.695 -406.311)" fill="#3f964f" />
			<path id="Path_153" data-name="Path 153" d="M1613.02,242.577h-26.89a6.93,6.93,0,0,1,0-13.86h26.89a6.93,6.93,0,0,1,0,13.86" transform="translate(-1083.704 -156.953)" fill="#ffe91d" />
			<path id="Path_154" data-name="Path 154" d="M808.13,242.577H781.239a6.93,6.93,0,0,1,0-13.86H808.13a6.93,6.93,0,0,1,0,13.86" transform="translate(-531.359 -156.953)" fill="#ffe91d" />
			<path id="Path_155" data-name="Path 155" d="M883.781,28.728l-21.4-16.283a6.93,6.93,0,0,1,8.393-11.03l21.4,16.284a6.93,6.93,0,0,1-8.393,11.03" transform="translate(-589.921 0.002)" fill="#ffe91d" />
			<path id="Path_156" data-name="Path 156" d="M1518.116,28.728l21.4-16.283a6.93,6.93,0,0,0-8.394-11.03l-21.4,16.284a6.93,6.93,0,0,0,8.393,11.03" transform="translate(-1034.15 0.002)" fill="#ffe91d" />
			<path id="Path_157" data-name="Path 157" d="M883.781,434.339l-21.4,16.283a6.93,6.93,0,0,0,8.393,11.03l21.4-16.284a6.93,6.93,0,0,0-8.393-11.03" transform="translate(-589.921 -297.087)" fill="#ffe91d" />
			<path id="Path_158" data-name="Path 158" d="M1518.116,434.339l21.4,16.283a6.93,6.93,0,0,1-8.394,11.03l-21.4-16.284a6.93,6.93,0,0,1,8.393-11.03" transform="translate(-1034.15 -297.087)" fill="#ffe91d" />
			<path id="Path_159" data-name="Path 159" d="M1275.4,1221.251a101.485,101.485,0,0,1-8.657-24.043c-2.15-10.574-2.05-23.2-1.786-29.95a1.552,1.552,0,0,1,2.876-.748c3.892,6.364,10.929,19.151,12.51,30.706a239.363,239.363,0,0,1,2.186,24.043Z" transform="translate(-867.962 -799.989)" fill="#3f964f" />
			<path id="Path_160" data-name="Path 160" d="M1319.153,1247.868s4.123-14.265,8.658-23.779c3.3-6.917,10.8-15.2,14.652-19.208a1.059,1.059,0,0,1,1.8.927c-.988,5.275-3.275,15.673-7.012,22.773-5.194,9.87-13.848,19.286-13.848,19.286Z" transform="translate(-905.25 -826.606)" fill="#3f964f" />
			<path id="Path_161" data-name="Path 161" d="M1251.219,1297.671a1.442,1.442,0,0,1,1.745-2.026,24.691,24.691,0,0,1,8.484,4.917,17.615,17.615,0,0,1,5.471,8.968l-1.587.534s-8.593-1.566-14.113-12.394" transform="translate(-858.52 -889.063)" fill="#0e6a41" />
			<path id="Path_162" data-name="Path 162" d="M1323.481,1192.761a1.583,1.583,0,0,0-2.863-.81c-3.22,4.479-8.624,13.309-10.391,24.13-2.214,13.505.363,22.695.363,22.695h1.822s6.712-12.718,9.33-21.334c2.47-8.132,2.153-18.931,1.74-24.68" transform="translate(-898.508 -817.505)" fill="#0e6a41" />
			<path id="Path_163" data-name="Path 163" d="M1332.714,1303.642s3.86-12.859,17.068-17.755a.946.946,0,0,1,1.2,1.247c-1.741,4.25-6.7,14.4-15.088,16.5Z" transform="translate(-914.556 -882.38)" fill="#0e6a41" />
			<path id="Path_164" data-name="Path 164" d="M1303.109,1335.668h-30.573l3.924,31.323h22.724Z" transform="translate(-873.26 -916.583)" fill="#768fdb" />
			<path id="Path_165" data-name="Path 165" d="M1151.051,1409.033v4.5h1.224a1.076,1.076,0,0,1,1.076,1.075v.181a1.076,1.076,0,0,1-1.076,1.076h-52.168a1.253,1.253,0,0,1-1.252-1.252v-6.475a1.252,1.252,0,0,1,1.252-1.252h52.168a1.076,1.076,0,1,1,0,2.151Z" transform="translate(-754.074 -965.452)" fill="#e62552" />
			<path id="Path_166" data-name="Path 166" d="M1163.911,1418.234h-45.627a.914.914,0,0,1-.914-.914v-2.667a.913.913,0,0,1,.914-.914h45.627Z" transform="translate(-766.779 -970.158)" fill="#fff" />
			<path id="Path_167" data-name="Path 167" d="M1079.124,1377.6v4.974H1077.9a1.137,1.137,0,0,0-1.075,1.19v.2a1.137,1.137,0,0,0,1.075,1.19h52.168a1.324,1.324,0,0,0,1.252-1.385V1376.6a1.324,1.324,0,0,0-1.252-1.385H1077.9a1.2,1.2,0,0,0,0,2.38Z" transform="translate(-738.955 -943.721)" fill="#3f964f" />
			<path id="Path_168" data-name="Path 168" d="M1083.661,1387.775h45.58a.961.961,0,0,0,.961-.962v-3.051a.961.961,0,0,0-.961-.962h-45.58Z" transform="translate(-743.647 -948.927)" fill="#fff" />
			<path id="Path_169" data-name="Path 169" d="M1139.847,1342.881h-47.57a1.9,1.9,0,0,1-1.9-1.9v-4.261a1.9,1.9,0,0,1,1.9-1.9h47.57a1.9,1.9,0,0,1,1.9,1.9v4.261a1.9,1.9,0,0,1-1.9,1.9" transform="translate(-748.254 -915.997)" fill="#e62552" />
			<path id="Path_170" data-name="Path 170" d="M1151.012,1365.134h-48.5a1.439,1.439,0,0,1-1.439-1.439v-1.733a1.438,1.438,0,0,1,1.439-1.438h48.5a1.438,1.438,0,0,1,1.438,1.438v1.733a1.439,1.439,0,0,1-1.438,1.439" transform="translate(-755.597 -933.64)" fill="#768fdb" />
		</g>
	</g>
</svg>
