<svg xmlns="http://www.w3.org/2000/svg" width="132.936" height="132.936" viewBox="0 0 132.936 132.936">
	<g id="Path_329" data-name="Path 329" transform="translate(0 66.468) rotate(-45)" fill="#fff" opacity="0.1">
		<path d="M 73 93.5 L 43.50456619262695 93.5 L 0.5 50.61237716674805 L 0.5 21 C 0.5 18.2322998046875 1.041949987411499 15.54765033721924 2.110787391662598 13.02062511444092 C 3.143275022506714 10.57956218719482 4.621462345123291 8.387162208557129 6.504312515258789 6.504312515258789 C 8.387162208557129 4.621462345123291 10.57956218719482 3.143275022506714 13.02062511444092 2.110787391662598 C 15.54765033721924 1.041949987411499 18.2322998046875 0.5 21 0.5 L 73 0.5 C 75.7677001953125 0.5 78.45234680175781 1.041949987411499 80.97937774658203 2.110787391662598 C 83.42044067382812 3.143275022506714 85.61283874511719 4.621462345123291 87.49568939208984 6.504312515258789 C 89.3785400390625 8.387162208557129 90.85672760009766 10.57956218719482 91.88921356201172 13.02062511444092 C 92.95805358886719 15.54765033721924 93.5 18.2322998046875 93.5 21 L 93.5 73 C 93.5 75.7677001953125 92.95805358886719 78.45234680175781 91.88921356201172 80.97937774658203 C 90.85672760009766 83.42044067382812 89.3785400390625 85.61283874511719 87.49568939208984 87.49568939208984 C 85.61283874511719 89.3785400390625 83.42044067382812 90.85672760009766 80.97937774658203 91.88921356201172 C 78.45234680175781 92.95805358886719 75.7677001953125 93.5 73 93.5 Z" stroke="none" />
		<path d="M 21 1 C 18.29957580566406 1 15.68046569824219 1.528663635253906 13.21541595458984 2.5712890625 C 10.83393859863281 3.578559875488281 8.6949462890625 5.020774841308594 6.857864379882812 6.857864379882812 C 5.020774841308594 8.6949462890625 3.578559875488281 10.83393859863281 2.5712890625 13.21541595458984 C 1.528663635253906 15.68046569824219 1 18.29957580566406 1 21 L 1 50.40487670898438 L 43.71126556396484 93 L 73 93 C 75.70042419433594 93 78.31953430175781 92.47133636474609 80.78459167480469 91.4287109375 C 83.16606140136719 90.42144012451172 85.3050537109375 88.97922515869141 87.14213562011719 87.14213562011719 C 88.97922515869141 85.3050537109375 90.42144012451172 83.16606140136719 91.4287109375 80.78459167480469 C 92.47133636474609 78.31953430175781 93 75.70042419433594 93 73 L 93 21 C 93 18.29957580566406 92.47133636474609 15.68046569824219 91.4287109375 13.21541595458984 C 90.42144012451172 10.83393859863281 88.97922515869141 8.6949462890625 87.14213562011719 6.857864379882812 C 85.3050537109375 5.020774841308594 83.16606140136719 3.578559875488281 80.78459167480469 2.5712890625 C 78.31953430175781 1.528663635253906 75.70042419433594 1 73 1 L 21 1 M 21 0 L 73 0 C 84.59797668457031 0 94 9.402023315429688 94 21 L 94 73 C 94 84.59797668457031 84.59797668457031 94 73 94 L 43.2978515625 94 L 0 50.81988906860352 L 0 21 C 0 9.402023315429688 9.402023315429688 0 21 0 Z" stroke="none" fill="#707070" />
	</g>
</svg>
