<svg xmlns="http://www.w3.org/2000/svg" xmlns:xlink="http://www.w3.org/1999/xlink" width="753.6" height="557.177" viewBox="0 0 753.6 557.177">
	<defs>
		<clipPath id="clip-path">
			<rect id="Rectangle_31" data-name="Rectangle 31" width="753.6" height="557.177" fill="none" />
		</clipPath>
	</defs>
	<g id="Group_19" data-name="Group 19" clip-path="url(#clip-path)">
		<path id="Path_172" data-name="Path 172" d="M753.6,2232.4c0,18.276-168.7,33.092-376.8,33.092S0,2250.68,0,2232.4s168.7-33.092,376.8-33.092,376.8,14.816,376.8,33.092" transform="translate(0 -1708.319)" fill="#dedede" />
		<path id="Path_173" data-name="Path 173" d="M1343.537,265.632l2.375-40.282-27.667-5.017-11.921,38.551c-4.105.275-6.884,1.464-7.373,4.159-.171.941.028,5.175,9.741,20.167,3.9,6.013,8.129,10.456,10.065,13.088,2.737-1.784,8.261-4.458,14.02-8.72,14.359-10.628,16.032-14.522,16.2-15.463.489-2.695-1.7-4.784-5.443-6.483" transform="translate(-1008.938 -171.145)" fill="#ebb298" />
		<path id="Path_174" data-name="Path 174" d="M1497.641,2191.043s-6.234-6.255-10.383-9.094l-3.67-14.806h-19.567l-1.167,21.323c-.819,6.115,4.029,12.026,13.642,11.317s21.145-8.74,21.145-8.74" transform="translate(-1136.204 -1683.331)" fill="#a3adbb" />
		<path id="Path_175" data-name="Path 175" d="M1507.788,2254.482c-1.892-2.364-8.368-4.009-9.528-4.525-3.511-1.562-14.335-13.092-14.335-13.092-6.874-3.508-10.887-2.456-14.9,1.2-2.645,2.407-1.936,4.776-3.071,7.127,0,0-9.714-2.244-10.989-4.453-1.863-3.226-2.5-4.17-4.52-1.74-.476.574-.773,25.045-.773,25.045l56.253.738s4.929-6.47,1.866-10.3" transform="translate(-1126.032 -1735.816)" fill="#3c2d14" />
		<path id="Path_176" data-name="Path 176" d="M1345.334,1001.771c-1.269,32.038.814,42.946-.454,74.985-.881,11.928,1.41,34.146-.039,40.344-2.025,8.663-32.045,27.245-34.957-6.352-3.705-37.868-5.108-54.262-13.018-90.984l-11.133-.861V966.143s52.9-6.922,54.743-2.157,4.857,37.785,4.857,37.785" transform="translate(-998.695 -747.478)" fill="#227289" />
		<path id="Path_177" data-name="Path 177" d="M1080.127,2204.28l-1.5-26.5h-19.132s-1.5,10.533-3.009,15.262-8.813,10.533-8.813,13.328,32.459,7.211,32.459-2.091" transform="translate(-813.777 -1691.594)" fill="#a3adbb" />
		<path id="Path_178" data-name="Path 178" d="M1025.195,2243.076c0,.027.024.05.036.074-3.231,3.231-6.852,6.924-7.651,8.776-1.257,2.914-1.94,6.423-.337,9.162a7.207,7.207,0,0,0,2.94,2.723h36.873c1.146-4.873-.534-17.651-.534-18.882s-2.056-2.05-3.084-3.074c.038-2.782-.573-5.451-3.881-7.218-1.965-1.049-10.306-1.2-14.086-1.169-6.748.049-9.658,5.385-10.275,9.608" transform="translate(-789.417 -1734.847)" fill="#3c2d14" />
		<path id="Path_179" data-name="Path 179" d="M1081.215,1006.819c-2.466,31.947-8.249,104.841-6.13,115.055,1.807,8.71,33.483,25.519,34.621-8.185,1.706-38.01,10.33-64.334,17.892-98.3l9.112-6.695,3.811-40.68s-53.194-4.127-54.781.729-4.526,38.076-4.526,38.076" transform="translate(-834.718 -750.636)" fill="#227289" />
		<path id="Path_180" data-name="Path 180" d="M1069.786,1571.173c.567-16.78,26.487-15.67,30.77-3.164,2.159,6.3-3.25,38.076-3.368,43.783s-1.071,93.624-1.071,93.624-18.988,1.682-28.862-.29c0,0-2.964-87.367-2.462-102.2s4.993-31.752,4.993-31.752" transform="translate(-827.034 -1210.641)" fill="#227289" />
		<path id="Path_181" data-name="Path 181" d="M1388.868,1555.409c-1.45-16.727,24.416-14.736,30.168-2.835,2.9,6,4.384,36.96,4.952,42.641s3.51,95.826,3.51,95.826-17.954.668-27.992-.106c0,0-13.471-91.895-14.752-106.682s4.114-28.846,4.114-28.846" transform="translate(-1075.456 -1198.724)" fill="#227289" />
		<path id="Path_182" data-name="Path 182" d="M1099.872,508.921s36.642,10.669,49.081,12.421,48.325,5.242,48.325,5.242c.719-1.741,26.141-138.266,25.979-146.19,0,0-21.711-15.868-33.185-21.483l-.613,16.364c-4.009,10.971-21.551,5.236-21.551,5.236s-16.6.387-17.571-11.436l3.684-15.24c-12.578,2.226-39.7,6.053-39.7,6.053-2.286,7.57-14.664,147.162-14.454,149.033" transform="translate(-854.325 -274.842)" fill="#ececec" />
		<path id="Path_183" data-name="Path 183" d="M1107.16,610.877c-.475-5.387,5.635-44.56,7.2-60.5a26.269,26.269,0,0,0-4.422-2.315c-4.388,43.82-10.214,110.436-10.07,111.724,0,0,15.884,4.625,30.286,8.284-1.229-6.332-22.522-51.808-23-57.2" transform="translate(-854.325 -425.71)" fill="#d1d7de" />
		<path id="Path_184" data-name="Path 184" d="M1443.36,630.075l-11.3,62.3c-6.665,9.228-34.429,35.647-37.56,39.932,14.649,1.6,31.632,3.253,31.632,3.253.508-1.231,13.355-69.788,20.789-112.686-2.78,2.253-3.564,7.2-3.564,7.2" transform="translate(-1083.182 -483.82)" fill="#d1d7de" />
		<path id="Path_185" data-name="Path 185" d="M1276.044,489.147l7.418-10.458-3.434-9.814-5.655-.578-5.5-1.445-6.661,7.984,3.274,12.4-28.555,97.634,12.551,20.678,19.013-14.955Z" transform="translate(-960.79 -362.628)" fill="#db4a2d" />
		<path id="Path_186" data-name="Path 186" d="M1404.672,388.052s7.1-2.479,10.91-5.721c4.071-3.469,11.028-18.731,11.028-18.731s6.145,1.864,5.7,7.384c-.48,5.974-14.147,39.648-14.147,39.648l-3.656-13.66Z" transform="translate(-1091.081 -282.427)" fill="#f4f4f4" />
		<path id="Path_187" data-name="Path 187" d="M1332.139,368.825s-5.782-4.816-8.206-9.188c-2.594-4.677-4.392-20.69-4.392-20.69s-5.765-1.134-7.288,4.191c-1.648,5.763-.675,42.091-.675,42.091l8.352-11.6Z" transform="translate(-1018.548 -263.2)" fill="#f4f4f4" />
		<path id="Path_188" data-name="Path 188" d="M991.479,488.4c1.631-3.77,20.025-51.787,24.439-60.566s-.379-45.928-6.556-47.048-18.168,18.237-20.892,24.951c-3.341,8.233-17.183,49.232-23.193,67.278-4.557,13.685,21.1,27.168,26.2,15.385" transform="translate(-749.36 -295.74)" fill="#ececec" />
		<path id="Path_189" data-name="Path 189" d="M1110.056,1072.2q-.79-1.969-1.453-3.976l-17.344,2.748q2.54,4.931,4.729,10.005c.515.487.094,7.354.094,7.354,2.9,2.736,19.467-4.234,22.636-6.375l-6.99-5.935q-.9-1.888-1.672-3.821" transform="translate(-847.637 -829.744)" fill="#ffc1a5" />
		<path id="Path_190" data-name="Path 190" d="M994.812,761.065s16.75,46.776,24.183,68.356c-.02,6.015-17.3,11.98-27.412,11.945,0,0-16.77-42.9-25.233-69.468-3.938-12.366,24.236-21.233,28.462-10.834" transform="translate(-750.321 -587.596)" fill="#ececec" />
		<path id="Path_191" data-name="Path 191" d="M1590.414,583.285c-.806-4.17-4.337-55.8-6.835-65.648s8.634-45.088,15.121-44.841,14.195,18.224,15.448,25.611c1.537,9.059,4.117,55.627,6.157,75.19,1.547,14.836-27.372,22.722-29.891,9.687" transform="translate(-1229.768 -367.245)" fill="#ececec" />
		<path id="Path_192" data-name="Path 192" d="M1438.924,1130.847q1.47-1.564,2.845-3.216l14.049,9.428q-4.172,3.7-8.1,7.672c-.643.261-3,6.967-3,6.967-3.614,1.468-15.313-11.677-17.231-14.96l8.455-2.908q1.531-1.446,2.975-2.983" transform="translate(-1108.808 -875.889)" fill="#ffc1a5" />
		<path id="Path_193" data-name="Path 193" d="M1481.948,866.972s-29.507,35.11-44.554,52.745c-2.368,5.736,10.349,18.2,19.19,22.141,0,0,27.986-31.406,45.911-53.391,8.342-10.231-12.735-29.739-20.548-21.495" transform="translate(-1116.273 -671.883)" fill="#ececec" />
		<path id="Path_194" data-name="Path 194" d="M1367.238,194.9a24.3,24.3,0,0,1-4.468-5.9,13.8,13.8,0,0,1-1.186-8.47c.568-3.137,2.48-6.376,4.91-7.593s4.714.373,5.365,3.117c.313,1.319-3.6,19.939-4.622,18.851" transform="translate(-1057.444 -134.001)" fill="#ffc1a5" />
		<path id="Path_195" data-name="Path 195" d="M1425.17,18.04c.5.176,5.2,2.074,5.688,2.3,14.858,6.855,28.126,15.185,16.317,38.035,0,0-13.386,26.3-16.841,31.044-1.753,2.406-4.545,4.224-7,5.824a56.379,56.379,0,0,1-11.969,5.988c-5.162,1.82-10.875,2.884-16.042.8a20.832,20.832,0,0,1-10.386-8.8,50.02,50.02,0,0,1-5.607-13.035,39.244,39.244,0,0,1-1.849-10.8,9.876,9.876,0,0,1,.078-1.291c.809-5.811,9.45-34.03,9.45-34.03,7.379-24.64,22.709-21.416,38.159-16.025" transform="translate(-1069.961 -11.064)" fill="#ffc1a5" />
		<path id="Path_196" data-name="Path 196" d="M1410.849,100.56c11.254,4.01,24.546-2.723,31.874-11.564,2.55-2.993,15.718-24.907,15.524-33.9-.123-5.753-1.546-8.045-22.083-18.615-16.942-8.72-28.952-3.55-33.455-2.372l.012-.04c7.379-24.64,22.709-21.416,38.159-16.025.5.176,5.2,2.074,5.688,2.3,14.859,6.855,28.126,15.185,16.318,38.035,0,0-13.386,26.3-16.841,31.044-1.753,2.406-4.545,4.224-7,5.824a56.38,56.38,0,0,1-11.969,5.988c-5.162,1.82-10.874,2.884-16.043.8a20.834,20.834,0,0,1-10.386-8.8,42.564,42.564,0,0,1-2.941-5.561c4.985,8.388,11.433,12.476,13.14,12.9" transform="translate(-1085.672 -11.064)" fill="#ec9d7a" />
		<path id="Path_197" data-name="Path 197" d="M1424.392,261.6c7.35,4.5,5.268,20.214,5.105,20.32a56.364,56.364,0,0,1-11.969,5.987c-5.162,1.821-11.5,3.909-16.671,1.821a20.834,20.834,0,0,1-10.386-8.8c-2.531-4.006-3.682-9.515-4.978-14.06-.026-.094-.052-.189-.079-.283,0,0,7.968-7.443,11.54-9.824,8.186-5.224,19.464-.044,27.438,4.84" transform="translate(-1076.122 -197.748)" fill="#383545" />
		<path id="Path_198" data-name="Path 198" d="M1533.405,230.876s-.339,11.381-1.56,12.973c-2.1,2.735-6.783-.023-6.783-.023s3.839-.019,4.612-2.24l3.73-10.71" transform="translate(-1184.594 -179.334)" fill="#e0664a" />
		<path id="Path_199" data-name="Path 199" d="M1604.293,216c-.022-.077-.047-.149-.073-.221-1.433-3.978-4.135-6.536-7.834-7.332a1.406,1.406,0,0,0-1.12.139,5.546,5.546,0,0,0-2.005,2.527,12.452,12.452,0,0,1,10.708,6.379.975.975,0,0,0,.373-.788,1.594,1.594,0,0,0-.048-.7" transform="translate(-1237.566 -161.865)" fill="#383545" />
		<path id="Path_200" data-name="Path 200" d="M1474.3,169.467c.069-.04.137-.075.205-.109,3.783-1.888,7.5-1.874,10.73.1a1.406,1.406,0,0,1,.715.874,5.547,5.547,0,0,1-.294,3.213,12.451,12.451,0,0,0-12.151-2.778.974.974,0,0,1,.274-.828,1.585,1.585,0,0,1,.521-.476" transform="translate(-1144.543 -130.464)" fill="#383545" />
		<path id="Path_201" data-name="Path 201" d="M1587.025,241.019a3.124,3.124,0,1,1,5.755,2.325l-.339.837-1.038,2.569c-.719,1.779-2.382,1.822-3.844,1.231s-2.629-1.777-1.91-3.556l1.038-2.569.338-.837" transform="translate(-1231.485 -185.445)" fill="#383545" />
		<path id="Path_202" data-name="Path 202" d="M1597.41,249.584a.28.28,0,1,0,.365-.155.28.28,0,0,0-.365.155" transform="translate(-1240.774 -193.729)" fill="#fff" />
		<path id="Path_203" data-name="Path 203" d="M1475.434,194.929a3.124,3.124,0,1,1,5.754,2.325l-.339.837-1.037,2.569c-.719,1.779-2.382,1.822-3.844,1.231s-2.629-1.778-1.91-3.556l1.037-2.569.339-.837" transform="translate(-1144.807 -149.645)" fill="#383545" />
		<path id="Path_204" data-name="Path 204" d="M1485.819,203.493a.28.28,0,1,0,.365-.155.28.28,0,0,0-.365.155" transform="translate(-1154.095 -157.928)" fill="#fff" />
		<path id="Path_205" data-name="Path 205" d="M1488.766,281.258s-6.764-2.246-11.048-4.211S1465.1,271.7,1465.1,271.7c-.772-.312-1.095,12.787,7.088,16.2,8.146,3.4,16.573-6.637,16.573-6.637" transform="translate(-1137.735 -211.038)" fill="#fff" />
		<path id="Path_206" data-name="Path 206" d="M1451.254,12.832c9.739,8.42,12.7,17.575,9.161,29.331-2.885,4.2-23.679,32.936-24.323,31.942s4.187-6.913,6.03-10.508c5.341-10.418,8.959-18.264,12.31-29.487-6.458,3.585-15.355-2.214-21.771-5.873s-12.161-8.676-19.181-10.976c-5.143-1.685-11.431-1.322-15.711,1.6-2.26,5.187-8.448,17.847-9.682,21.289-1.191,3.324-4.59,12.1-5.694,11.864s6.459-25.606,8.286-39.582c.35-2.681,9.268-12.289,12.566-12.347s31.827-1.664,48.01,12.748" transform="translate(-1073.689 -0.004)" fill="#383545" />
		<path id="Path_207" data-name="Path 207" d="M2254.394,846.8s9.2,5.116,2.531,18.125-40.794,61.625-51.241,74.727-31.593-10.8-24-22.73,37.692-53.634,46.873-65.633c5.225-6.829,15.537-9.7,25.832-4.489" transform="translate(-1693.377 -655.674)" fill="#ff7d7d" />
		<path id="Path_208" data-name="Path 208" d="M1920.723,1084.374c.376-4.21-2.627-9.16-6.214-11.859s-7.478-5.78-12.033-4.872c-3.127.623-7.992,11.482-5.96,14.5s8.136,7.074,11.854,8.149c4.021,1.163,11.885-.684,12.353-5.917" transform="translate(-1474.747 -827.869)" fill="#ffc1a5" />
		<path id="Path_209" data-name="Path 209" d="M2021.061,1121.372l-61.847-21.511,9.63-26.619s24.541,6.746,47.208,14.2c19.762,6.5,22.669,13.365,21.723,21.537-.952,8.219-7.246,15-16.714,12.389" transform="translate(-1521.822 -833.643)" fill="#ff7d7d" />
		<path id="Path_214" data-name="Path 214" d="M1955.8,1050.613c.85-2.943,1.564-7.463-1.2-10.629-2.013-2.309-5.088-6.521-6.1-6.844s-2.329,3.281-1.69,5.194,2,3.518,2.664,5.421c1,2.856.235,9.185.235,9.185s5.024,1.344,6.086-2.327" transform="translate(-1512.063 -802.478)" fill="#ffc1a5" />
		<path id="Path_215" data-name="Path 215" d="M802.615,847.58s-9.2,5.116-2.532,18.125,40.794,61.625,51.24,74.727,31.593-10.8,24-22.73-37.692-53.634-46.873-65.633c-5.225-6.829-15.537-9.7-25.832-4.489" transform="translate(-619.581 -656.28)" fill="#ececec" />
		<path id="Path_216" data-name="Path 216" d="M215.357,1870.1h0a1.851,1.851,0,0,1-2.042-1.974l26.2-121.68H248.9l-31.507,122.248a2,2,0,0,1-2.032,1.406" transform="translate(-165.673 -1356.553)" fill="#ccc" />
		<path id="Path_217" data-name="Path 217" d="M489.5,1870.1h-.051a1.9,1.9,0,0,1-2.064-1.788l7.368-121.866h9.381l-12.573,122.064a1.949,1.949,0,0,1-2.061,1.59" transform="translate(-378.576 -1356.553)" fill="#ccc" />
		<path id="Path_218" data-name="Path 218" d="M943.811,1870.1h0a2,2,0,0,1-2.032-1.406l-31.507-122.248h9.381l26.2,121.68a1.852,1.852,0,0,1-2.042,1.974" transform="translate(-707.055 -1356.553)" fill="#ccc" />
		<path id="Path_219" data-name="Path 219" d="M731.433,1870.1h-.051a1.948,1.948,0,0,1-2.061-1.593L717.1,1746.444h9.381l7.016,121.869a1.9,1.9,0,0,1-2.065,1.785" transform="translate(-557.008 -1356.553)" fill="#ccc" />
		<path id="Path_220" data-name="Path 220" d="M398.39,1816.316H219.017a5.971,5.971,0,0,1,0-11.942H398.39a5.971,5.971,0,0,1,0,11.942" transform="translate(-165.484 -1401.55)" fill="#c99a71" />
		<path id="Path_221" data-name="Path 221" d="M254.2,852.645h80.2a36.793,36.793,0,0,1,36.685,36.685v140.486A36.793,36.793,0,0,1,334.4,1066.5H254.2a36.793,36.793,0,0,1-36.685-36.685V889.33A36.793,36.793,0,0,1,254.2,852.645" transform="translate(-168.959 -662.294)" fill="#edc6a4" />
		<path id="Path_222" data-name="Path 222" d="M399.545,887.694h56.366a31.928,31.928,0,0,1,31.835,31.835v142.362a31.929,31.929,0,0,1-31.835,31.835H399.545a31.929,31.929,0,0,1-31.835-31.835V919.529a31.928,31.928,0,0,1,31.835-31.835" transform="translate(-285.619 -689.518)" fill="#c99a71" />
		<path id="Path_223" data-name="Path 223" d="M770.629,1383.57h48.312a20.308,20.308,0,0,1,20.248,20.248v56.532a20.308,20.308,0,0,1-20.248,20.248H770.629a20.307,20.307,0,0,1-20.248-20.248v-56.532a20.308,20.308,0,0,1,20.248-20.248" transform="translate(-582.859 -1074.69)" fill="#edc6a4" />
		<path id="Path_224" data-name="Path 224" d="M230.328,1718.359H417.892a11.479,11.479,0,0,1,11.445,11.445h0a11.479,11.479,0,0,1-11.445,11.445H230.328a11.479,11.479,0,0,1-11.445-11.445h0a11.479,11.479,0,0,1,11.445-11.445" transform="translate(-170.018 -1334.738)" fill="#eee7de" />
		<path id="Path_225" data-name="Path 225" d="M468.7,1491.6s-16.8-.394-16.8-19.534,16.8-43.145,16.8-43.145h81.032s14.807,23.672,18.762,33.674,8.091,29.006-17.29,29.006Z" transform="translate(-351.013 -1109.914)" fill="#6f4b28" />
		<path id="Path_226" data-name="Path 226" d="M968.03,2185.545a106.3,106.3,0,0,0-4.9-13.74H948.921c-5.016,9.373-3.843,28.675-4.261,39.233l50.368-.373c5.135-4.993-27-25.12-27-25.12" transform="translate(-733.766 -1686.953)" fill="#b3b3b3" />
		<path id="Path_227" data-name="Path 227" d="M940.83,2256.061c-1.041-1.062-.607-11.106-2.093-11.117-1.553-.011-1.988,2.748-1.988,2.748-.523,1.463,0,30.271,0,30.271h59.894c9.33,0,8.331-11.869,7.857-13.621-14.577-7.076-24.687-10.821-37.931-20.156-3.776,0-8.771-.6-9.518,2.447s-.718,6.253-1.639,9.249c-.322,1.046-13.847.928-14.581.179" transform="translate(-727.44 -1743.138)" fill="#4d4d4d" />
		<path id="Path_228" data-name="Path 228" d="M592.191,1534.823c29.33-1.781,57.268.285,86.65,0,8.867-.085,15.96,1.488,19.989,5.107s5.424,24.615-7.97,34.841H590.149Z" transform="translate(-458.399 -1191.608)" fill="#6f4b28" />
		<path id="Path_229" data-name="Path 229" d="M664.142,1585.345c-7.995,2.837-5.674,13.153-6.189,20.374-10.574-1.032-33.784,0-33.784,0s-2.234-16.763-3.781-20.89c-1.29-4.126-2.6-7.811-6.34-6.9-3.353,8.768-1.742,19.021-8.447,25.726a40.434,40.434,0,0,1-15.114-1.537l-.337,6.6H690.859a24.512,24.512,0,0,0,4.122-4,22.945,22.945,0,0,0-5.823-11.119c-6.447-6.963-16.247-11.605-25.016-8.253" transform="translate(-458.399 -1225.55)" fill="#53381e" />
		<path id="Path_230" data-name="Path 230" d="M569.985,2206.386a152.43,152.43,0,0,1-6.183-15.426l.842-31.286a4.347,4.347,0,0,1,4.4-4.07l13.885.172c1.983.034,7.867,26.781,7.867,26.781l11.936,17.689a24.62,24.62,0,0,1,2.783,6.14Z" transform="translate(-437.934 -1674.368)" fill="#b3b3b3" />
		<path id="Path_231" data-name="Path 231" d="M591.536,2247.149l-6.61-5.619-6.477-7.056c-7.769-1.835-18.631,3.678-18.631,3.678l-1.458,6.76c-.478-.084-4.305-.526-4.743-.74-3.2-1.563-1.575-14.328-2.214-14.329-.15,0-2.178.342-2.615,3.438-1.416,10.04-1.324,33.021-1.324,33.021h48.026c.026-.2-2.343-17.041-3.956-19.154" transform="translate(-425.243 -1732.034)" fill="#4d4d4d" />
		<path id="Path_232" data-name="Path 232" d="M943.356,1690.2s12.12-101.067,10.131-133.239c-2.1-33.98-46.461-26.471-46.461-1.086,0,26.473,6.044,134.325,6.044,134.325Z" transform="translate(-704.533 -1191.608)" fill="#6f4b28" />
		<path id="Path_233" data-name="Path 233" d="M555.9,1684.195l5.822-131.624c0-30.875-44.331-36.325-46.7-6.368s6.643,137.992,6.643,137.992Z" transform="translate(-399.734 -1185.603)" fill="#6f4b28" />
		<path id="Path_234" data-name="Path 234" d="M643.158,690.94l-4.629-38.225H611.7l-4.629,38.225c-3.808.957-6.214,2.547-6.214,5.16,0,.912.907,4.854,12.58,17.277,4.681,4.982,9.412,8.433,11.679,10.574,2.266-2.141,7-5.592,11.679-10.574,11.673-12.423,12.58-16.365,12.58-17.277,0-2.613-2.407-4.2-6.214-5.16" transform="translate(-466.715 -506.998)" fill="#ebb298" />
		<path id="Path_235" data-name="Path 235" d="M556.734,667.814a35.623,35.623,0,0,1-8.869-1.645,12.939,12.939,0,0,1-6.994-5.579c-1.486-2.687-1.567-6.279.281-8.684s5.42-2.627,7.979-.985c1.23.79,9.453,17.077,7.6,16.894" transform="translate(-419.259 -504.781)" fill="#ffc1a5" />
		<path id="Path_236" data-name="Path 236" d="M796.965,611.794a35.622,35.622,0,0,0,7.659-4.764,12.938,12.938,0,0,0,4.48-7.745c.4-3.044-.83-6.418-3.427-7.984s-6-.471-7.789,1.991c-.858,1.184-2.579,19.347-.924,18.5" transform="translate(-618.505 -458.728)" fill="#ffc1a5" />
		<path id="Path_237" data-name="Path 237" d="M568.347,422.192c-.5.09-5.168,1.166-5.654,1.3-14.9,4.2-28.526,10.014-20.884,33.112,0,0,8.6,26.556,11.129,31.5,1.281,2.508,3.619,4.62,5.674,6.478a53.337,53.337,0,0,0,10.293,7.368c4.552,2.466,9.731,4.307,14.868,3.123a19.706,19.706,0,0,0,11.008-6.682,47.309,47.309,0,0,0,7.171-11.346,37.114,37.114,0,0,0,3.329-9.816,9.329,9.329,0,0,0,.119-1.218c.106-5.548-3.782-33.192-3.782-33.192-3.239-24.112-18.038-23.374-33.271-20.63" transform="translate(-419.147 -326.902)" fill="#ffc1a5" />
		<path id="Path_238" data-name="Path 238" d="M584.164,503.734c-11.108,2.078-22.527-6.184-28.061-15.53-1.938-3.174-4.407-9.678-4.512-13.213-.168-5.688,3.036-13.406,9.9-19.778,3.6-3.339-.572-8.75,2.577-10.256,4.32-2.066,15.613,1.616,20.695-4.5.533-.641,8.732,6.762,16.857,2.4,0-.023-.005-.039-.005-.039-3.239-24.112-18.038-23.374-33.271-20.63-.5.09-5.168,1.166-5.654,1.3-14.9,4.2-28.527,10.014-20.884,33.112,0,0,8.6,26.556,11.129,31.5,1.281,2.507,3.619,4.62,5.674,6.478a53.322,53.322,0,0,0,10.293,7.368c4.552,2.466,9.731,4.307,14.869,3.123a19.708,19.708,0,0,0,11.008-6.682,40.3,40.3,0,0,0,3.572-4.758c-5.9,7.1-12.531,9.96-14.188,10.1" transform="translate(-419.147 -326.902)" fill="#ec9d7a" />
		<path id="Path_239" data-name="Path 239" d="M728.845,597.109s5.827,9.057,5.728,10.952c-.17,3.254-5.3,3.612-5.3,3.612s2.984-2.07,2.4-4.216l-2.824-10.349" transform="translate(-566.131 -463.806)" fill="#e0664a" />
		<path id="Path_240" data-name="Path 240" d="M622.546,578.469c.032-.068.066-.132.1-.2,1.929-3.5,4.832-5.493,8.406-5.688a1.332,1.332,0,0,1,1.026.3,5.246,5.246,0,0,1,1.5,2.658,11.777,11.777,0,0,0-10.949,4.371.922.922,0,0,1-.232-.792,1.5,1.5,0,0,1,.149-.651" transform="translate(-483.445 -444.753)" fill="#452b17" />
		<path id="Path_241" data-name="Path 241" d="M754.578,551.46c-.058-.048-.117-.091-.176-.132-3.254-2.325-6.732-2.863-10.039-1.493a1.331,1.331,0,0,0-.8.71,5.247,5.247,0,0,0-.2,3.045,11.778,11.778,0,0,1,11.763-.793.922.922,0,0,0-.133-.814,1.5,1.5,0,0,0-.416-.522" transform="translate(-577.317 -426.508)" fill="#452b17" />
		<path id="Path_242" data-name="Path 242" d="M648.692,603.3a2.955,2.955,0,1,0-5.72,1.318l.192.833.589,2.553c.408,1.768,1.955,2.055,3.409,1.72s2.719-1.271,2.312-3.039l-.589-2.554-.192-.832" transform="translate(-499.355 -466.577)" fill="#452b17" />
		<path id="Path_243" data-name="Path 243" d="M653.025,632.747a.265.265,0,1,1-.318-.2.265.265,0,0,1,.318.2" transform="translate(-506.832 -491.328)" fill="#fff" />
		<path id="Path_244" data-name="Path 244" d="M765.939,576.275a2.955,2.955,0,1,0-5.72,1.319l.192.832L761,580.98c.408,1.768,1.955,2.055,3.409,1.72s2.719-1.271,2.312-3.039l-.589-2.554-.192-.833" transform="translate(-590.427 -445.586)" fill="#452b17" />
		<path id="Path_245" data-name="Path 245" d="M769.851,605.677a.265.265,0,1,1-.318-.2.265.265,0,0,1,.318.2" transform="translate(-597.577 -470.301)" fill="#fff" />
		<path id="Path_246" data-name="Path 246" d="M678.731,658.014s9.18-1.135,13.53-2.111,9.533-2.394,9.533-2.394-.791,12.354-9.032,13.9c-8.205,1.543-14.547-9.305-14.03-9.4" transform="translate(-527.182 -507.614)" fill="#fff" />
		<path id="Path_247" data-name="Path 247" d="M510.262,420.937c3.486-1.762,5.722-3.252,6.868-6.372,1.536-4.183-1.026-7.674,1.945-9.258,4.713-2.513,15.515.908,19.47-2.652a7.506,7.506,0,0,0,1.907-2.731,15.854,15.854,0,0,0,4.9,3.712c3.246,1.484,6.676,1.814,9.159,6.329,1.069,1.944,6.466,23.7,6.466,23.7,2.1-1.811-.1-19.134.056-22.309.165-3.41.366-5.149.413-8.562a12.511,12.511,0,0,0-5.08-10.039,26,26,0,0,0-.865-5.531c-1.074-3.846-3.419-7.5-7-9.377a10.208,10.208,0,0,0-10.273.386c-6.429-4.289-13.746-7.936-21.039-5.849-6.564,1.879-10.916,7.885-16.621,11.6-3.341,2.177-7.153,3.563-10.546,5.659s-6.5,5.191-7.1,9.076a7.729,7.729,0,0,0,1.47,5.654,6.063,6.063,0,0,0-1.584,3.676c-.15,2.948,1.527,5.664,3.364,7.988s9.075,3.886,10.039,6.675c1.089,3.149,9.1,20.613,10.295,20.338s-1.542-20.282-1.542-20.282a28.9,28.9,0,0,0,5.3-1.835" transform="translate(-375.016 -288.782)" fill="#452b17" />
		<path id="Path_248" data-name="Path 248" d="M489.511,957.23a7.584,7.584,0,0,0,6.737,6.948c10.514,1.151,37.008,1.764,46.6,1.385,9.264-.366,27.528-.514,37.747-1.447a7.586,7.586,0,0,0,6.9-7.62c-.247-29.427-2.087-125.93-3.517-132.988,0,0-17.134-10.759-29.907-14.373l2.408,16.846c-2.065,11.962-21.065,9.35-21.065,9.35s-16.9,3.473-20.087-8.435l.942-16.266c-12.449,4.609-31.278,12.657-31.278,12.657-.823,7.2,2.316,105.826,4.521,133.944" transform="translate(-376.613 -628.497)" fill="#ececec" />
		<path id="Path_249" data-name="Path 249" d="M874.409,1005.178c0,10.58.89,21.432.89,32.148-.223,17.637.546,60.3-1.426,70.651-.461,2.42-11.073,5.03-12.635,5.254q-1.2.29-2.4.559c4.556-.174,8.849-.4,12.251-.708a7.586,7.586,0,0,0,6.9-7.62c-.169-20.15-1.085-71.748-2.1-104.546a10.14,10.14,0,0,0-1.472,4.261" transform="translate(-667.104 -777.464)" fill="#d1d7de" />
		<path id="Path_250" data-name="Path 250" d="M515.271,1115.532c-2.754-5.25-4.672-9.811-17.775-16.212-4.76-18.182-6-32.93-8.009-49.227a6.18,6.18,0,0,0-1.752-3.424c.918,33.052,2.645,77.624,4.012,95.066a7.584,7.584,0,0,0,6.737,6.948c3.478.381,8.706.7,14.491.949,2.543.108,7.526-24.125,2.295-34.1" transform="translate(-378.849 -813.002)" fill="#d1d7de" />
		<path id="Path_251" data-name="Path 251" d="M678.91,944.654l5.934-11.6L681,923.436l-8.721.678-5.889-.458-5.331,9.4,7.162,12.069-2.932,88.1,16,18.063,11.62-19.589Z" transform="translate(-513.48 -717.281)" fill="#c6a144" />
		<path id="Path_252" data-name="Path 252" d="M711.317,825.121s6.8-3.852,10.095-7.873c3.52-4.3,7.8-21.2,7.8-21.2s6.629.766,7.2,6.493c.617,6.2-8.143,43.164-8.143,43.164l-3.81-13.939Z" transform="translate(-552.516 -618.333)" fill="#f4f4f4" />
		<path id="Path_253" data-name="Path 253" d="M623.874,828.1s-6.8-3.852-10.095-7.873c-3.52-4.3-8.327-20.341-8.327-20.341s-6.106-.09-6.676,5.637c-.617,6.2,7.114,43.164,7.114,43.164l8.781-16.031Z" transform="translate(-465.074 -621.314)" fill="#f4f4f4" />
		<path id="Path_254" data-name="Path 254" d="M190.478,1382.935h48.2a20.362,20.362,0,0,1,20.3,20.3v57.169a20.362,20.362,0,0,1-20.3,20.3h-48.2a20.362,20.362,0,0,1-20.3-20.3v-57.169a20.362,20.362,0,0,1,20.3-20.3" transform="translate(-132.184 -1074.197)" fill="#eee7de" />
		<path id="Path_255" data-name="Path 255" d="M292.928,1382.935h-48.2a20.164,20.164,0,0,0-4.711.557c14.023,1.367,33.486,2.972,47.3,6.558,16.106,4.18,15.814,8.863,20.022,19.883,2.84,7.438,4.486,17.865,5.892,24.242v-30.938a20.362,20.362,0,0,0-20.3-20.3" transform="translate(-186.43 -1074.197)" fill="#c9c3bc" />
		<path id="Path_256" data-name="Path 256" d="M298.127,871.12s-8.761-5.843-17.275,6.043-37.118,67.965-43.988,83.25,25.049,19.654,32.179,7.44,39.537-74.536,39.537-74.536-1.113-15.425-10.454-22.2" transform="translate(-183.237 -675.529)" fill="#ececec" />
		<path id="Path_257" data-name="Path 257" d="M537.444,1336.031s10.257,6.489,12.461,12.622c2.668,7.425,1.116,17.58,1.116,18.933a1.846,1.846,0,0,1-3.621,0c-.9-2.53-1.936-14.851-2.786-16.435-1.182-2.2-9.535-9.154-9.535-9.154Z" transform="translate(-415.623 -1037.764)" fill="#ffc1a5" />
		<path id="Path_258" data-name="Path 258" d="M524.739,1345.9s10.257,6.489,12.461,12.622c2.668,7.425,1.116,17.581,1.116,18.932a1.845,1.845,0,0,1-3.621,0c-.9-2.529-1.936-14.851-2.786-16.435-1.182-2.2-9.535-9.153-9.535-9.153Z" transform="translate(-405.755 -1045.432)" fill="#ffc1a5" />
		<path id="Path_259" data-name="Path 259" d="M513.181,1360.724s9.689,6.129,11.771,11.923c2.52,7.014,1.055,16.607,1.055,17.885a1.743,1.743,0,0,1-3.42,0c-.852-2.39-1.829-14.028-2.632-15.525-1.117-2.082-9.007-8.647-9.007-8.647Z" transform="translate(-396.879 -1056.945)" fill="#ffc1a5" />
		<path id="Path_260" data-name="Path 260" d="M500.305,1359.215s9.3,5.885,11.3,11.448c2.42,6.735,1.012,15.946,1.012,17.172a1.674,1.674,0,0,1-3.284,0c-.818-2.294-1.756-13.47-2.527-14.906-1.073-2-8.649-8.3-8.649-8.3Z" transform="translate(-386.946 -1055.772)" fill="#ffc1a5" />
		<path id="Path_261" data-name="Path 261" d="M492.5,1340.79s-6.278.457-6.278-5.77,5.669-10.3,10.735-10.3,13.094,5.868,15.924,7.174.159,4.07-2.37,3.124-6.93-2.26-6.93-2.26Z" transform="translate(-377.672 -1028.98)" fill="#ffc1a5" />
		<path id="Path_262" data-name="Path 262" d="M243.491,1277.234l52.448,7.333,5.341-22.137s-22.794-8.3-43.3-11.137c-17.167-2.374-22.178-.772-24.383,7.087-2.218,7.905,1.728,17.451,9.891,18.855" transform="translate(-180.974 -971.159)" fill="#ececec" />
		<path id="Path_263" data-name="Path 263" d="M1403.268,1126.234a4.166,4.166,0,0,1-3.3.4c-2.918-1.084-6.808-3.057-10.686-3.26-1.268-.067-2.213,1.3-2.72,2.555-.441,1.092-.656,5.924.611,6.082a77.189,77.189,0,0,0,12.637.737c1.718-.057,5.031-2.043,7.148-3.617,3.417-2.539,7.07-5.065,10.442-7.809,2.356-1.917-1.908-3.109-4.175-1.021,0,0-9.114,5.318-9.961,5.931" transform="translate(-1076.749 -869.343)" fill="#ffc1a5" />
		<path id="Path_264" data-name="Path 264" d="M1379.9,1079.721l13.619-.662s13.684-5.755,16.837-7.326.772-4.573-3.2-2.916-15.562,4.977-15.562,4.977-14.961-.839-16.526-1.276,4.832,7.2,4.832,7.2" transform="translate(-1067.897 -829.829)" fill="#ffc1a5" />
		<path id="Path_318" data-name="Path 318" d="M4.046.164l10.871,1.1S26,7.427,28.566,9.092s.762,4.574-2.456,2.8S13.552,6.437,13.552,6.437,1.661,6.791.428,7.174,4.046.164,4.046.164" transform="matrix(-0.998, -0.07, 0.07, -0.998, 442.222, 246.538)" fill="#ffc1a5" />
		<path id="Path_265" data-name="Path 265" d="M1396.325,1097.279l13.564-1.39s13.394-6.436,16.458-8.173.526-4.607-3.352-2.741-15.31,5.759-15.31,5.759-14.984-.038-16.57-.39,5.21,6.935,5.21,6.935" transform="translate(-1080.364 -842.284)" fill="#ffc1a5" />
		<path id="Path_319" data-name="Path 319" d="M4.344.175,15.2,1.994s10.883,6.833,13.381,8.66.567,4.6-2.584,2.619S13.609,7.052,13.609,7.052,1.667,6.608.414,6.907,4.344.175,4.344.175" transform="matrix(-0.998, -0.07, 0.07, -0.998, 438.341, 251.374)" fill="#ffc1a5" />
		<path id="Path_266" data-name="Path 266" d="M1383.706,1117.339l13.564-1.39s14.391-7.211,17.455-8.948.526-4.607-3.352-2.741-16.307,6.535-16.307,6.535-14.984-.038-16.57-.39,5.21,6.934,5.21,6.934" transform="translate(-1070.562 -857.264)" fill="#ffc1a5" />
		<path id="Path_320" data-name="Path 320" d="M4.375.17,15.308,1.977S27.086,9.6,29.6,11.426s.566,4.6-2.605,2.623S13.7,7.037,13.7,7.037,1.671,6.607.409,6.908,4.375.17,4.375.17" transform="matrix(-0.998, -0.07, 0.07, -0.998, 441.058, 259.476)" fill="#ffc1a5" />
		<path id="Path_267" data-name="Path 267" d="M1318.506,1090.913c2.869-3.677,8.78-5.668,13.438-5.434s9.825.364,12.5,4.185c1.836,2.623,1.47,5.8.729,8.913-.9,3.8.022,5.685-3.729,6.762s-14.725.387-18.266-1.255c-3.829-1.776-8.238-8.6-4.671-13.171" transform="translate(-1023.13 -843.133)" fill="#ffc1a5" />
		<path id="Path_268" data-name="Path 268" d="M1332.585,1061.8a42.045,42.045,0,0,1,6.654-7.844c2.391-2.067,5.7-2.694,8.851-2.9s8.42-1.4,9.413-.939-.522,4.12-2.344,5.126-3.974,1.277-5.81,2.257c-2.754,1.471-6.594,6.813-6.594,6.813Z" transform="translate(-1035.087 -815.601)" fill="#ffc1a5" />
		<path id="Path_269" data-name="Path 269" d="M1384.789,1103.975a1.571,1.571,0,0,0,1.183-.213,1.554,1.554,0,0,0,.4-.944,18.266,18.266,0,0,0,.39-4.352,6.83,6.83,0,0,0-1.491-4.036,4.3,4.3,0,0,0-3.684-1.534,3.006,3.006,0,0,1,.554,2.026,5.308,5.308,0,0,1-1.052,2.581c-1.79,2.545-4.659,4.071-7.42,5.506l11.118.968" transform="translate(-1067 -848.886)" fill="#ec9d7a" />
		<path id="Path_270" data-name="Path 270" d="M1040.892,1123.764l61.847-21.511-9.63-26.619s-19.645,5.195-41.738,12.782c-19.456,6.681-28.139,14.788-27.193,22.959.952,8.219,7.246,15,16.714,12.389" transform="translate(-795.477 -835.501)" fill="#ececec" />
		<path id="Path_271" data-name="Path 271" d="M2993.592,1869.318h0a1.852,1.852,0,0,0,2.043-1.973l-26.2-121.68h-9.381l31.507,122.248a2,2,0,0,0,2.032,1.406" transform="translate(-2299.225 -1355.947)" fill="#ccc" />
		<path id="Path_272" data-name="Path 272" d="M2785.051,1869.318h.051a1.9,1.9,0,0,0,2.064-1.788l-7.368-121.866h-9.381l12.572,122.064a1.949,1.949,0,0,0,2.061,1.589" transform="translate(-2151.925 -1355.947)" fill="#ccc" />
		<path id="Path_273" data-name="Path 273" d="M2265.138,1869.318h0a2,2,0,0,0,2.032-1.406l31.507-122.248H2289.3l-26.2,121.68a1.852,1.852,0,0,0,2.043,1.973" transform="translate(-1757.843 -1355.947)" fill="#ccc" />
		<path id="Path_274" data-name="Path 274" d="M2544.342,1869.318h.051a1.948,1.948,0,0,0,2.061-1.593l12.22-122.061h-9.381l-7.016,121.869a1.9,1.9,0,0,0,2.064,1.785" transform="translate(-1974.716 -1355.947)" fill="#ccc" />
		<path id="Path_275" data-name="Path 275" d="M2268.8,1815.536h179.373a5.971,5.971,0,1,0,0-11.942H2268.8a5.971,5.971,0,0,0,0,11.942" transform="translate(-1757.654 -1400.944)" fill="#c99a71" />
		<path id="Path_276" data-name="Path 276" d="M2544.325,851.865h-80.2a36.793,36.793,0,0,0-36.685,36.685v140.486a36.793,36.793,0,0,0,36.685,36.685h80.2a36.793,36.793,0,0,0,36.685-36.685V888.55a36.793,36.793,0,0,0-36.685-36.685" transform="translate(-1885.52 -661.688)" fill="#edc6a4" />
		<path id="Path_277" data-name="Path 277" d="M2515.646,886.914H2459.28a31.928,31.928,0,0,0-31.835,31.835v142.362a31.929,31.929,0,0,0,31.835,31.835h56.366a31.929,31.929,0,0,0,31.835-31.835V918.749a31.928,31.928,0,0,0-31.835-31.835" transform="translate(-1885.521 -688.912)" fill="#c99a71" />
		<path id="Path_278" data-name="Path 278" d="M2253.212,1382.79H2204.9a20.308,20.308,0,0,0-20.248,20.248v56.532a20.307,20.307,0,0,0,20.248,20.248h48.312a20.307,20.307,0,0,0,20.248-20.248v-56.532a20.308,20.308,0,0,0-20.248-20.248" transform="translate(-1696.931 -1074.084)" fill="#edc6a4" />
		<path id="Path_279" data-name="Path 279" d="M2370.271,1717.579H2182.708a11.479,11.479,0,0,0-11.445,11.445h0a11.479,11.479,0,0,0,11.445,11.445h187.563a11.479,11.479,0,0,0,11.445-11.445h0a11.479,11.479,0,0,0-11.445-11.445" transform="translate(-1686.531 -1334.132)" fill="#eee7de" />
		<path id="Path_280" data-name="Path 280" d="M2448.159,1490.817s16.8-.394,16.8-19.534-16.8-43.145-16.8-43.145h-81.032s-14.807,23.672-18.762,33.673-8.09,29.006,17.29,29.006Z" transform="translate(-1821.795 -1109.308)" fill="#2d2f4d" />
		<path id="Path_281" data-name="Path 281" d="M2187.624,2184.765a106.288,106.288,0,0,1,4.9-13.74h14.206c5.017,9.373,3.844,28.675,4.261,39.233l-50.368-.373c-5.135-4.993,27-25.12,27-25.12" transform="translate(-1677.837 -1686.347)" fill="#b3b3b3" />
		<path id="Path_282" data-name="Path 282" d="M2154.476,2255.282c1.041-1.062.607-11.106,2.094-11.117,1.553-.012,1.988,2.747,1.988,2.747.523,1.463,0,30.271,0,30.271h-59.894c-9.33,0-8.331-11.869-7.857-13.621,14.577-7.076,24.687-10.821,37.931-20.156,3.776,0,8.771-.6,9.518,2.446s.717,6.253,1.639,9.249c.322,1.046,13.847.928,14.582.179" transform="translate(-1623.814 -1742.533)" fill="#464340" />
		<path id="Path_283" data-name="Path 283" d="M2352.793,1534.043c-29.33-1.781-57.269.285-86.65,0-8.867-.085-15.96,1.488-19.989,5.107s-5.424,24.615,7.97,34.841h100.71Z" transform="translate(-1742.533 -1191.002)" fill="#2d2f4d" />
		<path id="Path_284" data-name="Path 284" d="M2303.946,1584.565c7.995,2.837,5.673,13.153,6.189,20.374,10.574-1.032,33.784,0,33.784,0s2.234-16.763,3.781-20.89c1.289-4.126,2.6-7.812,6.34-6.9,3.353,8.768,1.742,19.021,8.447,25.726a40.438,40.438,0,0,0,15.114-1.537l.337,6.6h-100.71a24.51,24.51,0,0,1-4.122-4,22.948,22.948,0,0,1,5.823-11.119c6.448-6.963,16.248-11.605,25.016-8.253" transform="translate(-1765.638 -1224.944)" fill="#22233a" />
		<path id="Path_285" data-name="Path 285" d="M2608.282,2208.1a152.553,152.553,0,0,0,6.183-15.426l-.842-31.285a4.348,4.348,0,0,0-4.4-4.071l-13.885.172c-1.983.034-7.867,26.781-7.867,26.781l-11.937,17.689a24.621,24.621,0,0,0-2.783,6.14Z" transform="translate(-1998.388 -1675.696)" fill="#b3b3b3" />
		<path id="Path_286" data-name="Path 286" d="M2564.757,2248.86l6.61-5.619,6.477-7.056c7.769-1.835,18.632,3.677,18.632,3.677l1.458,6.76c.478-.084,4.305-.526,4.743-.74,3.2-1.563,1.575-14.328,2.213-14.329.151,0,2.178.341,2.615,3.438,1.416,10.04,1.325,33.021,1.325,33.021H2560.8c-.025-.2,2.343-17.041,3.956-19.154" transform="translate(-1989.105 -1733.363)" fill="#464340" />
		<path id="Path_287" data-name="Path 287" d="M2227.056,1689.42s-12.12-101.067-10.13-133.239c2.1-33.98,46.461-26.471,46.461-1.086,0,26.473-6.044,134.325-6.044,134.325Z" transform="translate(-1721.828 -1191.002)" fill="#2d2f4d" />
		<path id="Path_288" data-name="Path 288" d="M2613.059,1683.415l-5.822-131.624c0-30.875,44.331-36.325,46.7-6.368s-6.643,137.992-6.643,137.992Z" transform="translate(-2025.174 -1184.997)" fill="#2d2f4d" />
		<path id="Path_289" data-name="Path 289" d="M2520.869,690.16l4.629-38.225h26.831l4.629,38.225c3.808.957,6.214,2.547,6.214,5.16,0,.912-.907,4.854-12.58,17.277-4.681,4.982-9.412,8.433-11.678,10.574-2.266-2.141-7-5.592-11.679-10.574-11.673-12.423-12.58-16.365-12.58-17.277,0-2.613,2.406-4.2,6.214-5.16" transform="translate(-1953.261 -506.392)" fill="#ebb298" />
		<path id="Path_290" data-name="Path 290" d="M2716.1,667.034a35.632,35.632,0,0,0,8.869-1.645,12.941,12.941,0,0,0,6.994-5.58c1.486-2.687,1.566-6.279-.281-8.684s-5.42-2.627-7.979-.985c-1.23.79-9.453,17.077-7.6,16.894" transform="translate(-2109.526 -504.175)" fill="#ffc1a5" />
		<path id="Path_291" data-name="Path 291" d="M2490.959,611.014a35.636,35.636,0,0,1-7.66-4.764,12.939,12.939,0,0,1-4.479-7.745c-.4-3.044.83-6.418,3.427-7.984s6.005-.471,7.789,1.991c.858,1.184,2.579,19.347.924,18.5" transform="translate(-1925.367 -458.122)" fill="#ffc1a5" />
		<path id="Path_292" data-name="Path 292" d="M2535.6,421.412c.5.09,5.169,1.166,5.655,1.3,14.9,4.2,28.526,10.014,20.884,33.112,0,0-8.6,26.556-11.129,31.5-1.281,2.508-3.619,4.62-5.674,6.478a53.321,53.321,0,0,1-10.293,7.368c-4.552,2.466-9.731,4.307-14.868,3.123a19.706,19.706,0,0,1-11.008-6.682,47.307,47.307,0,0,1-7.17-11.346,37.1,37.1,0,0,1-3.329-9.816,9.348,9.348,0,0,1-.119-1.218c-.106-5.548,3.782-33.192,3.782-33.192,3.239-24.112,18.038-23.374,33.271-20.63" transform="translate(-1940.746 -326.296)" fill="#ffc1a5" />
		<path id="Path_293" data-name="Path 293" d="M2532.926,502.954c11.108,2.078,22.527-6.184,28.061-15.53,1.938-3.174,3.329-14.548,3.934-18.032,2.248-12.931-.646-19.9-.646-19.9s-38.613-4.684-48.808-7.412l.006-.039c3.239-24.113,18.038-23.374,33.271-20.63.5.09,5.168,1.166,5.655,1.3,14.9,4.2,28.527,10.014,20.884,33.112,0,0-8.6,26.556-11.129,31.5-1.281,2.507-3.619,4.62-5.674,6.478a53.314,53.314,0,0,1-10.293,7.368c-4.552,2.466-9.731,4.307-14.868,3.123a19.7,19.7,0,0,1-11.008-6.682,40.271,40.271,0,0,1-3.572-4.759c5.9,7.1,12.531,9.96,14.188,10.1" transform="translate(-1953.892 -326.297)" fill="#ec9d7a" />
		<path id="Path_294" data-name="Path 294" d="M2584.055,596.329s-5.827,9.057-5.728,10.952c.17,3.254,5.3,3.612,5.3,3.612s-2.984-2.069-2.4-4.216l2.823-10.349" transform="translate(-2002.718 -463.2)" fill="#e0664a" />
		<path id="Path_295" data-name="Path 295" d="M2671.375,577.689c-.032-.068-.066-.132-.1-.2-1.928-3.5-4.832-5.493-8.406-5.688a1.332,1.332,0,0,0-1.026.3,5.249,5.249,0,0,0-1.5,2.658,11.777,11.777,0,0,1,10.949,4.372.923.923,0,0,0,.232-.792,1.506,1.506,0,0,0-.149-.651" transform="translate(-2066.424 -444.147)" fill="#452b17" />
		<path id="Path_296" data-name="Path 296" d="M2536.788,550.679c.058-.048.117-.091.176-.132,3.254-2.325,6.732-2.863,10.039-1.493a1.331,1.331,0,0,1,.8.71,5.249,5.249,0,0,1,.2,3.045,11.777,11.777,0,0,0-11.763-.793.922.922,0,0,1,.133-.814,1.5,1.5,0,0,1,.416-.522" transform="translate(-1969.998 -425.901)" fill="#452b17" />
		<path id="Path_297" data-name="Path 297" d="M2660.922,602.52a2.955,2.955,0,1,1,5.72,1.318c-.033.142-.159.692-.192.833l-.589,2.554c-.407,1.768-1.954,2.055-3.408,1.72s-2.719-1.271-2.312-3.039l.589-2.554c.032-.141.159-.691.192-.833" transform="translate(-2066.208 -465.972)" fill="#452b17" />
		<path id="Path_298" data-name="Path 298" d="M2677.964,631.967a.265.265,0,1,0,.317-.2.265.265,0,0,0-.317.2" transform="translate(-2080.106 -490.722)" fill="#fff" />
		<path id="Path_299" data-name="Path 299" d="M2543.675,575.5a2.955,2.955,0,1,1,5.72,1.319l-.192.832-.589,2.554c-.407,1.768-1.955,2.055-3.408,1.72s-2.719-1.271-2.312-3.039l.588-2.554c.033-.141.159-.691.192-.833" transform="translate(-1975.136 -444.981)" fill="#452b17" />
		<path id="Path_300" data-name="Path 300" d="M2561.138,604.9a.265.265,0,1,0,.317-.2.265.265,0,0,0-.317.2" transform="translate(-1989.362 -469.696)" fill="#fff" />
		<path id="Path_301" data-name="Path 301" d="M2573.759,657.233s-9.18-1.135-13.53-2.111-9.533-2.394-9.533-2.394.791,12.354,9.032,13.9c8.2,1.543,14.547-9.306,14.031-9.4" transform="translate(-1981.256 -507.008)" fill="#fff" />
		<path id="Path_302" data-name="Path 302" d="M2552.663,395.37c-1.322,0-.341-4.228.205-6.435,1.347-5.441,1.765-10.882,3.112-16.322a17.493,17.493,0,0,1-7.351-11.377,21.926,21.926,0,0,1-7.255.63,8.273,8.273,0,0,0,3.185-3.755c-12.876,3.8-26.094,2.356-39.132-.84,0,0-6.529,19.613-7.088,20.962-1.3,3.136-2.222-.442-1.724-3.143l3.307-17.932c.78-4.228,1.585-8.533,3.6-12.329a16.2,16.2,0,0,1,5.754-6.285,20.709,20.709,0,0,1,2.626-13.465,10.966,10.966,0,0,0,3.616,7.371,31.647,31.647,0,0,1,1.337-17.927c-.509,5.431,2.264,10.795,6.274,14.493a28.5,28.5,0,0,0,5.19,3.754c8.28,1.382,17.275-.173,24.948,3.31,10.124,4.6,14.825,16.977,13.784,28.047s-6.122,19.361-11.739,28.956c0,0-1.245,2.286-2.654,2.286" transform="translate(-1939.142 -244.308)" fill="#452b17" />
		<path id="Path_303" data-name="Path 303" d="M2486.21,956.451a7.584,7.584,0,0,1-6.737,6.948c-10.514,1.151-37.008,1.764-46.6,1.385-9.264-.366-27.528-.514-37.747-1.447a7.586,7.586,0,0,1-6.9-7.62c.247-29.427,2.087-125.93,3.517-132.988,0,0,17.134-10.759,29.907-14.373l-2.408,16.846c2.065,11.962,21.065,9.35,21.065,9.35s16.9,3.473,20.087-8.435l-.942-16.266c12.449,4.609,31.278,12.657,31.278,12.657.823,7.2-2.316,105.826-4.521,133.944" transform="translate(-1855.057 -627.892)" fill="#ff7d7d" />
		<path id="Path_304" data-name="Path 304" d="M2391.655,1068.889c-1.116-31.255,2.232-62.286,2.009-93.318,0-2.778-1.532-5.46-3.092-8.172-1.113,31.864-2.163,90.133-2.345,111.855a7.586,7.586,0,0,0,6.9,7.62c1.016.093,2.112.177,3.271.256-.392-.416-.78-.838-1.158-1.273-4.018-4.688-5.358-10.939-5.581-16.967" transform="translate(-1855.058 -751.428)" fill="#f66565" />
		<path id="Path_305" data-name="Path 305" d="M2692.394,956.937c-1.563,14.065-1.272,30.65-1.718,44.492-.223,8.037-.291,13.776-3.417,21.144-4.465,10.046-9.526,10.052-16.721,17.247-6.688,6.689-5.227,10.473-4.492,18.7a17.512,17.512,0,0,1-5.131,13.618,27.341,27.341,0,0,1-11.113,5.435c11.517-.15,25.788-.68,32.85-1.453a7.584,7.584,0,0,0,6.737-6.948c1.684-21.483,3.914-84.12,4.505-115.7a7.23,7.23,0,0,0-1.5,3.469" transform="translate(-2058.237 -740.608)" fill="#d96464" />
		<path id="Path_307" data-name="Path 307" d="M2529.656,824.3a52.467,52.467,0,0,1-7.187-7.829c-3.276-4.49-6.333-21.2-6.333-21.2s-6.629.766-7.2,6.493c-.617,6.2,5.194,40.215,5.194,40.215l3.81-13.939Z" transform="translate(-1948.784 -617.728)" fill="#d55656" />
		<path id="Path_308" data-name="Path 308" d="M2601.9,827.278s11.183-3.247,14.473-7.267c3.52-4.3,8.327-20.9,8.327-20.9s6.105-.09,6.676,5.636c.617,6.2-7.114,43.164-7.114,43.164l-8.781-16.03Z" transform="translate(-2021.032 -620.708)" fill="#d55656" />
		<path id="Path_309" data-name="Path 309" d="M2833.365,1382.155h-48.2a20.362,20.362,0,0,0-20.3,20.3v57.169a20.362,20.362,0,0,0,20.3,20.3h48.2a20.362,20.362,0,0,0,20.3-20.3v-57.169a20.362,20.362,0,0,0-20.3-20.3" transform="translate(-2147.607 -1073.591)" fill="#eee7de" />
		<path id="Path_310" data-name="Path 310" d="M2788.535,1388.448c9.2-4.956,29.019-5.329,39.212-6.294h-42.586a20.362,20.362,0,0,0-20.3,20.3v25.072c.072-.209.154-.414.216-.627,5.074-17.621,8.28-30.416,23.461-38.453" transform="translate(-2147.607 -1073.59)" fill="#c9c3bc" />
		<path id="Path_311" data-name="Path 311" d="M2781.832,870.341s8.761-5.843,17.275,6.043,37.118,67.965,43.988,83.25-25.049,19.654-32.179,7.44-39.537-74.537-39.537-74.537,1.113-15.425,10.454-22.2" transform="translate(-2152.671 -674.924)" fill="#ff7d7d" />
		<path id="Path_312" data-name="Path 312" d="M2745.424,1326.474s-10.257,6.489-12.461,12.622c-2.667,7.425-1.116,17.581-1.116,18.933a1.845,1.845,0,0,0,3.621,0c.9-2.529,1.936-14.851,2.786-16.435,1.183-2.2,9.536-9.154,9.536-9.154Z" transform="translate(-2121.617 -1030.341)" fill="#ffc1a5" />
		<path id="Path_313" data-name="Path 313" d="M2758.128,1336.345s-10.257,6.489-12.461,12.622c-2.668,7.425-1.116,17.58-1.116,18.933a1.845,1.845,0,0,0,3.621,0c.9-2.53,1.936-14.851,2.786-16.435,1.182-2.2,9.536-9.153,9.536-9.153Z" transform="translate(-2131.485 -1038.008)" fill="#ffc1a5" />
		<path id="Path_314" data-name="Path 314" d="M2772.846,1351.167s-9.689,6.129-11.771,11.923c-2.52,7.014-1.055,16.607-1.055,17.884a1.743,1.743,0,0,0,3.42,0c.852-2.389,1.829-14.028,2.632-15.525,1.117-2.082,9.007-8.647,9.007-8.647Z" transform="translate(-2143.52 -1049.521)" fill="#ffc1a5" />
		<path id="Path_315" data-name="Path 315" d="M2787.865,1349.657s-9.3,5.885-11.3,11.448c-2.419,6.735-1.012,15.946-1.012,17.172a1.674,1.674,0,0,0,3.284,0c.818-2.294,1.756-13.47,2.527-14.907,1.073-2,8.649-8.3,8.649-8.3Z" transform="translate(-2155.596 -1048.348)" fill="#ffc1a5" />
		<path id="Path_316" data-name="Path 316" d="M2750.416,1331.233s6.278.457,6.278-5.77-5.669-10.3-10.735-10.3-13.094,5.868-15.924,7.174-.159,4.07,2.37,3.124,6.93-2.26,6.93-2.26Z" transform="translate(-2119.614 -1021.557)" fill="#ffc1a5" />
		<path id="Path_317" data-name="Path 317" d="M2849.641,1276.455l-52.448,7.333-5.943-24.633s23.4-5.807,43.9-8.642c17.167-2.374,22.177-.772,24.383,7.087,2.218,7.9-1.728,17.451-9.892,18.854" transform="translate(-2168.106 -970.554)" fill="#ff7d7d" />
	</g>
</svg>
