<svg id="instagram-svgrepo-com_3_" data-name="instagram-svgrepo-com (3)" xmlns="http://www.w3.org/2000/svg" width="50.912" height="50.466" viewBox="0 0 50.912 50.466">
	<path id="Path_1120" data-name="Path 1120" d="M25.456,0A25.234,25.234,0,1,1,0,25.233,25.345,25.345,0,0,1,25.456,0Z" transform="translate(0 0)" fill="#184c92" />
	<g id="Group_16958" data-name="Group 16958" transform="translate(10.998 10.619)">
		<path id="Path_1112" data-name="Path 1112" d="M129.784,109.468h-11.7a8.63,8.63,0,0,0-8.62,8.62v11.7a8.63,8.63,0,0,0,8.62,8.62h11.7a8.63,8.63,0,0,0,8.62-8.62v-11.7a8.63,8.63,0,0,0-8.62-8.62Zm5.709,20.317a5.709,5.709,0,0,1-5.709,5.709h-11.7a5.709,5.709,0,0,1-5.709-5.709v-11.7a5.709,5.709,0,0,1,5.709-5.709h11.7a5.709,5.709,0,0,1,5.709,5.709v11.7Z" transform="translate(-109.468 -109.468)" fill="#fff" />
		<path id="Path_1113" data-name="Path 1113" d="M187.686,180.2a7.484,7.484,0,1,0,7.484,7.484,7.493,7.493,0,0,0-7.484-7.484Zm0,12.057a4.573,4.573,0,1,1,4.573-4.573,4.573,4.573,0,0,1-4.573,4.573Z" transform="translate(-173.218 -173.218)" fill="#fff" />
	</g>
	<g id="Group_16959" data-name="Group 16959" transform="translate(25.41 10.619)">
		<path id="Path_1114" data-name="Path 1114" d="M317.364,164.4a1.793,1.793,0,1,1-1.793-1.793,1.793,1.793,0,0,1,1.793,1.793Z" transform="translate(-308.015 -157.364)" fill="#d1d1d1" />
		<path id="Path_1115" data-name="Path 1115" d="M261.331,109.468h-5.9v2.911h5.9a5.709,5.709,0,0,1,5.709,5.709v11.7a5.709,5.709,0,0,1-5.709,5.709h-5.9V138.4h5.9a8.63,8.63,0,0,0,8.62-8.62v-11.7A8.63,8.63,0,0,0,261.331,109.468Z" transform="translate(-255.426 -109.468)" fill="#d1d1d1" />
		<path id="Path_1116" data-name="Path 1116" d="M255.483,180.2h-.057v2.911h.057a4.573,4.573,0,0,1,0,9.146h-.057v2.911h.057a7.484,7.484,0,0,0,0-14.968Z" transform="translate(-255.426 -173.218)" fill="#d1d1d1" />
	</g>
</svg>
