<svg id="Group_33" data-name="Group 33" xmlns="http://www.w3.org/2000/svg" width="135" height="136" viewBox="0 0 135 136">
	<g id="Ellipse_8" data-name="Ellipse 8" fill="none" stroke="#184c92" stroke-width="5">
		<ellipse cx="67.5" cy="68" rx="67.5" ry="68" stroke="none" />
		<ellipse cx="67.5" cy="68" rx="65" ry="65.5" fill="none" />
	</g>
	<g id="_3525373_bet_casino_coin_gambling_investment_icon" data-name="3525373_bet_casino_coin_gambling_investment_icon" transform="translate(29.858 31.584)">
		<path id="Path_334" data-name="Path 334" d="M137.85,265.652l-.04-.062a4.565,4.565,0,0,0-2.184-1.825,4.69,4.69,0,0,0-.581-.2,4.672,4.672,0,0,0-.751-1.459l-.084-.1a4.625,4.625,0,0,0-5.66-1.307c-.066.033-.132.066-.189.1l-.342.186a4.593,4.593,0,0,0-3.171-1.259,4.642,4.642,0,0,0-2.294.609l-13.7,7.793a7.322,7.322,0,0,1-2.789.907L93.52,270.511h-.349a.989.989,0,0,1-.3-.043,1.007,1.007,0,0,1-.615-.528.948.948,0,0,1-.049-.135l-.008-.03a.963.963,0,0,1-.04-.275v-.031a1.024,1.024,0,0,1,1.023-1.023h10.5a7.341,7.341,0,0,0,7.332-7.332v-.062a2.51,2.51,0,0,0-2.507-2.507H90.287a10.816,10.816,0,0,0-7.6,3.149l-8.978,8.979-1.332-1.966a1.027,1.027,0,0,0-1.31-.343L66.192,270.8v24.127l19.139-4.62a1.027,1.027,0,0,0,.772-1.164l30.556-6.944.081-.019.124-.046,19.177-9.9a4.645,4.645,0,0,0,1.81-6.584ZM74.96,289.929a2.5,2.5,0,1,1,2.5-2.5A2.5,2.5,0,0,1,74.96,289.929Zm61.22-21.193a2.324,2.324,0,0,1-1.188,1.466L116.011,280l-29.989,6.815L75.835,271.775l8.466-8.466a8.513,8.513,0,0,1,5.985-2.479h18.228a.217.217,0,0,1,.22.22v.062a5.051,5.051,0,0,1-5.045,5.045h-10.5a3.314,3.314,0,0,0-3.31,3.31v.031a3.25,3.25,0,0,0,.131.915,3.287,3.287,0,0,0,3.165,2.384h.483l12.668-1.487a9.593,9.593,0,0,0,3.654-1.189l13.709-7.8a2.352,2.352,0,0,1,1.162-.31,2.323,2.323,0,0,1,1.829.884l.08.091c.023.03.044.06.066.091l.585.841,2.055-1.116c.036-.02.072-.038.093-.048a2.337,2.337,0,0,1,2.874.688l.079.093a2.341,2.341,0,0,1,.441,1.142l.1.969.973.058a2.362,2.362,0,0,1,.754.177,2.318,2.318,0,0,1,1.114.939l.03.046A2.332,2.332,0,0,1,136.18,268.736Z" transform="translate(-66.192 -221.192)" fill="#184c92" />
		<path id="Path_335" data-name="Path 335" d="M186,94.143a15.778,15.778,0,1,0-15.779-15.779A15.778,15.778,0,0,0,186,94.143Zm0-26.374a10.6,10.6,0,1,1-10.6,10.6A10.6,10.6,0,0,1,186,67.769Z" transform="translate(-150.395 -62.586)" fill="#184c92" />
		<path id="Path_336" data-name="Path 336" d="M230.065,115.2a1.7,1.7,0,0,1-.546-.313,1.4,1.4,0,0,1-.329-.426,3.871,3.871,0,0,1-.2-.477q-.081-.242-.155-.472a1.5,1.5,0,0,0-.2-.407.942.942,0,0,0-.333-.287,1.191,1.191,0,0,0-.555-.11.993.993,0,0,0-.762.3,1.2,1.2,0,0,0-.278.852,2.537,2.537,0,0,0,.116.742,3.086,3.086,0,0,0,.349.749,3.562,3.562,0,0,0,.584.7,3.928,3.928,0,0,0,.817.581,4.763,4.763,0,0,0,1.049.407,5.617,5.617,0,0,0,1.289.174v1.13a.705.705,0,0,0,.146.429.52.52,0,0,0,.163.139.407.407,0,0,0,.2.051.393.393,0,0,0,.195-.051.544.544,0,0,0,.159-.139.688.688,0,0,0,.107-.2.7.7,0,0,0,.039-.229v-1.13a6.374,6.374,0,0,0,1.692-.323,3.885,3.885,0,0,0,1.308-.742,3.2,3.2,0,0,0,.842-1.172,4.068,4.068,0,0,0,.3-1.611,4.463,4.463,0,0,0-.155-1.24,3.24,3.24,0,0,0-.431-.943,2.947,2.947,0,0,0-.662-.7,4.678,4.678,0,0,0-.844-.507,6.727,6.727,0,0,0-.979-.368q-.519-.152-1.067-.281v-3.461a1.876,1.876,0,0,1,.779.158,2.111,2.111,0,0,1,.555.371,2.95,2.95,0,0,1,.406.474q.173.255.345.475a2.005,2.005,0,0,0,.361.365.738.738,0,0,0,.461.145,1.07,1.07,0,0,0,.4-.077,1,1,0,0,0,.335-.223,1.031,1.031,0,0,0,.229-.358,1.29,1.29,0,0,0,.083-.478,1.674,1.674,0,0,0-.2-.817,2.505,2.505,0,0,0-.535-.668,3.858,3.858,0,0,0-.754-.523,6.2,6.2,0,0,0-.861-.38,5.9,5.9,0,0,0-.861-.236,5.215,5.215,0,0,0-.744-.094V102.94a.715.715,0,0,0-.039-.236.694.694,0,0,0-.108-.2.534.534,0,0,0-.159-.139.388.388,0,0,0-.195-.052.4.4,0,0,0-.2.052.514.514,0,0,0-.163.139.7.7,0,0,0-.107.2.715.715,0,0,0-.038.236V104a5.1,5.1,0,0,0-1.495.285,3.81,3.81,0,0,0-1.259.729,3.467,3.467,0,0,0-.869,1.182,3.88,3.88,0,0,0-.323,1.633,3.313,3.313,0,0,0,.27,1.366,3.163,3.163,0,0,0,.781,1.062,4.593,4.593,0,0,0,1.244.778,8,8,0,0,0,1.65.5v3.816A2.919,2.919,0,0,1,230.065,115.2Zm1.857-3.468c.222.056.456.124.7.2a2.584,2.584,0,0,1,.664.326,1.745,1.745,0,0,1,.492.516,1.441,1.441,0,0,1,.193.775,1.6,1.6,0,0,1-.18.785,1.679,1.679,0,0,1-.469.542,2.143,2.143,0,0,1-.656.329,3.276,3.276,0,0,1-.74.139Zm-2.4-3.225a1.4,1.4,0,0,1-.458-1.094,1.321,1.321,0,0,1,.13-.571,1.488,1.488,0,0,1,.371-.488,1.927,1.927,0,0,1,.584-.345,2.305,2.305,0,0,1,.769-.145v3.26A3.075,3.075,0,0,1,229.519,108.509Z" transform="translate(-196.114 -94.741)" fill="#184c92" />
	</g>
</svg>
