<svg id="Group_30" data-name="Group 30" xmlns="http://www.w3.org/2000/svg" width="135" height="136" viewBox="0 0 135 136">
	<g id="Ellipse_5" data-name="Ellipse 5" fill="none" stroke="#184c92" stroke-width="5">
		<ellipse cx="67.5" cy="68" rx="67.5" ry="68" stroke="none" />
		<ellipse cx="67.5" cy="68" rx="65" ry="65.5" fill="none" />
	</g>
	<g id="XMLID_2_" transform="translate(37.588 27.161)">
		<g id="Group_29" data-name="Group 29" transform="translate(0)">
			<g id="Group_28" data-name="Group 28">
				<path id="Path_330" data-name="Path 330" d="M74.359,282.778a14.678,14.678,0,0,1-11.881,6.062H55.634a5.469,5.469,0,0,1-5.141-3.6,17.361,17.361,0,0,1-2.765-1.093,18.619,18.619,0,0,1-5.164-3.822,22.048,22.048,0,0,0-17.29,21.526v1.378a3.43,3.43,0,0,0,3.43,3.43H81.915a3.43,3.43,0,0,0,3.43-3.43v-1.378A22.032,22.032,0,0,0,74.359,282.778Z" transform="translate(-25.274 -239.163)" fill="#184c92" />
				<path id="Path_331" data-name="Path 331" d="M95.513,34.091a3.9,3.9,0,0,0,3.422-2.023l.053.143.016.043A15.242,15.242,0,0,0,107.6,41.3a5.462,5.462,0,0,1,4.63-2.56h6.845a3.832,3.832,0,0,0,1.875-.5,7.736,7.736,0,0,0,2.211-2.554,19.737,19.737,0,0,0,1.712-3.618,3.925,3.925,0,0,0,1.08,1.244v1.678a6.886,6.886,0,0,1-6.878,6.878h-6.845a2.343,2.343,0,0,0,0,4.686h6.845a11.578,11.578,0,0,0,11.565-11.564V33.31a3.9,3.9,0,0,0,1.562-3.124V20.411a3.9,3.9,0,0,0-1.621-3.167,18.734,18.734,0,0,0-37.349,0,3.9,3.9,0,0,0-1.621,3.167v9.774A3.907,3.907,0,0,0,95.513,34.091Zm16.39-29.4a14.067,14.067,0,0,1,13.978,12.655,3.919,3.919,0,0,0-1.1,1.356c-2.211-5.768-7.147-9.784-12.881-9.784-5.858,0-10.714,4.154-12.872,9.761l-.009.023a3.919,3.919,0,0,0-1.1-1.356A14.067,14.067,0,0,1,111.9,4.686Z" transform="translate(-81.868)" fill="#184c92" />
			</g>
		</g>
	</g>
</svg>
