<svg xmlns="http://www.w3.org/2000/svg" width="135" height="136" viewBox="0 0 135 136">
	<g id="Group_31" data-name="Group 31" transform="translate(-0.326)">
		<g id="Ellipse_6" data-name="Ellipse 6" transform="translate(0.326)" fill="none" stroke="#184c92" stroke-width="5">
			<ellipse cx="67.5" cy="68" rx="67.5" ry="68" stroke="none" />
			<ellipse cx="67.5" cy="68" rx="65" ry="65.5" fill="none" />
		</g>
		<g id="_2639934_training_icon" data-name="2639934_training_icon" transform="translate(52.126 34)">
			<circle id="Ellipse_9" data-name="Ellipse 9" cx="8.5" cy="8.5" r="8.5" transform="translate(1.199 0)" fill="#184c92" />
			<line id="Line_11" data-name="Line 11" x1="19" transform="translate(15.199 25)" fill="none" stroke="#184c92" stroke-linecap="round" stroke-linejoin="round" stroke-miterlimit="10" stroke-width="2" />
			<path id="Path_332" data-name="Path 332" d="M20.731,52.736a2.882,2.882,0,0,1-2.881,2.881h0a2.882,2.882,0,0,1-2.875-2.691L13.754,34.605a1.393,1.393,0,0,0-1.389-1.3h0a1.393,1.393,0,0,0-1.389,1.3L9.756,52.929a2.881,2.881,0,0,1-2.875,2.688h0A2.882,2.882,0,0,1,4,52.736V16.577A5.576,5.576,0,0,1,9.577,11H26.308v5.577H23.52a2.79,2.79,0,0,0-2.789,2.789Z" transform="translate(-4 11.278)" fill="#184c92" />
			<path id="Path_333" data-name="Path 333" d="M12,39.463H48.251V6H12" transform="translate(10.308 2.335)" fill="none" stroke="#184c92" stroke-linejoin="round" stroke-miterlimit="10" stroke-width="2" />
			<line id="Line_12" data-name="Line 12" y1="2" transform="translate(37.199 6)" fill="none" stroke="#184c92" stroke-linecap="round" stroke-linejoin="round" stroke-miterlimit="10" stroke-width="2" />
			<line id="Line_13" data-name="Line 13" y1="22" x2="7" transform="translate(25.199 42)" fill="none" stroke="#184c92" stroke-linecap="round" stroke-linejoin="round" stroke-miterlimit="10" stroke-width="2" />
			<line id="Line_14" data-name="Line 14" x1="5" y1="22" transform="translate(43.199 42)" fill="none" stroke="#184c92" stroke-linecap="round" stroke-linejoin="round" stroke-miterlimit="10" stroke-width="2" />
		</g>
	</g>
</svg>
