<svg xmlns="http://www.w3.org/2000/svg" width="135" height="136" viewBox="0 0 135 136">
	<g id="Group_32" data-name="Group 32" transform="translate(-0.027)">
		<g id="Ellipse_7" data-name="Ellipse 7" transform="translate(0.027)" fill="none" stroke="#184c92" stroke-width="5">
			<ellipse cx="67.5" cy="68" rx="67.5" ry="68" stroke="none" />
			<ellipse cx="67.5" cy="68" rx="65" ry="65.5" fill="none" />
		</g>
		<g id="XMLID_229_" transform="translate(36.087 42.247)">
			<path id="XMLID_230_" d="M52.241,2.2c0-.038-.005-.075-.01-.112s-.011-.075-.017-.113-.013-.08-.022-.119-.017-.069-.027-.1-.021-.08-.034-.119-.025-.068-.037-.1-.028-.075-.044-.111-.033-.07-.051-.105-.033-.067-.051-.1-.042-.069-.063-.1-.038-.062-.06-.092S51.779.96,51.755.928s-.048-.062-.073-.092-.049-.055-.074-.082-.059-.062-.09-.092c-.01-.01-.019-.021-.03-.031s-.032-.026-.048-.04c-.032-.029-.065-.056-.1-.083s-.058-.045-.088-.066-.066-.046-.1-.068-.065-.041-.1-.06-.067-.037-.1-.055-.07-.035-.106-.051-.07-.03-.106-.044-.073-.028-.109-.04S50.558.1,50.521.091s-.075-.02-.113-.029S50.334.046,50.3.039s-.08-.013-.121-.019L50.067.009c-.043,0-.087-.006-.13-.007l-.062,0h-9.5a2.375,2.375,0,1,0,0,4.75h4.064L30.017,20.326l-6.172-6.172a2.375,2.375,0,0,0-3.421.065L.632,35.573A2.375,2.375,0,0,0,4.116,38.8L22.231,19.257,28.4,25.43a2.375,2.375,0,0,0,3.422-.066L47.5,8.436v3.439a2.375,2.375,0,1,0,4.75,0v-9.5c0-.015,0-.029,0-.044C52.246,2.289,52.244,2.247,52.241,2.2Z" transform="translate(0.001)" fill="#184c92" />
			<path id="XMLID_231_" d="M49.876,300H2.375a2.375,2.375,0,1,0,0,4.75h47.5a2.375,2.375,0,1,0,0-4.75Z" transform="translate(0 -252.499)" fill="#184c92" />
		</g>
	</g>
</svg>
