<svg xmlns="http://www.w3.org/2000/svg" width="51" height="51" viewBox="0 0 51 51">
	<g id="youtube-svgrepo-com_3_" data-name="youtube-svgrepo-com (3)" transform="translate(0.097)">
		<circle id="Ellipse_18" data-name="Ellipse 18" cx="25.5" cy="25.5" r="25.5" transform="translate(-0.097 0)" fill="#184c92" />
		<path id="Path_1118" data-name="Path 1118" d="M132.415,152.333H115.506a6.007,6.007,0,0,0-6.007,6.007v8.453a6.007,6.007,0,0,0,6.007,6.007h16.909a6.007,6.007,0,0,0,6.007-6.007V158.34a6.007,6.007,0,0,0-6.007-6.007Zm-4.063,10.645-7.909,3.772a.317.317,0,0,1-.454-.286v-7.78a.317.317,0,0,1,.461-.283l7.909,4.008a.317.317,0,0,1-.007.57Z" transform="translate(-98.504 -137.11)" fill="#fff" />
		<path id="Path_1119" data-name="Path 1119" d="M262.9,152.333h-8.625v7.759l4.569,2.315a.318.318,0,0,1-.007.57l-4.562,2.176V172.8H262.9a6.007,6.007,0,0,0,6.007-6.007V158.34A6.007,6.007,0,0,0,262.9,152.333Z" transform="translate(-228.99 -137.11)" fill="#d1d1d1" />
	</g>
</svg>
